<svg width="32" height="32" viewBox="0 0 32 32" fill="none" xmlns="http://www.w3.org/2000/svg">
<path d="M6.8624 11.675C6.5249 12.0702 5.98481 12.3819 5.44472 12.3374C5.37722 11.8031 5.64164 11.2353 5.95106 10.8847C6.28856 10.4783 6.87932 10.1889 7.35749 10.1666C7.41374 10.7232 7.19432 11.2687 6.8624 11.675ZM7.35182 12.4432C6.5699 12.3986 5.90038 12.8829 5.52913 12.8829C5.15221 12.8829 4.58405 12.4654 3.96521 12.4766C3.16072 12.4877 2.41252 12.9386 2.00185 13.6566C1.158 15.0927 1.78244 17.2189 2.59816 18.3878C2.99758 18.9666 3.47578 19.6012 4.10587 19.5789C4.70212 19.5567 4.93847 19.1949 5.65856 19.1949C6.38423 19.1949 6.59239 19.5789 7.22239 19.5678C7.87498 19.5567 8.28566 18.989 8.68508 18.4101C9.14075 17.7533 9.32642 17.1132 9.33767 17.0798C9.32642 17.0686 8.07758 16.5955 8.06633 15.1705C8.05508 13.9794 9.05075 13.4117 9.09575 13.3783C8.53325 12.5545 7.65566 12.4654 7.35182 12.4432ZM11.8692 10.829V19.5066H13.2306V16.5399H15.1152C16.8366 16.5399 18.0462 15.371 18.0462 13.6788C18.0462 11.9868 16.8591 10.829 15.1602 10.829H11.8692ZM13.2306 11.9645H14.8002C15.9816 11.9645 16.6566 12.5879 16.6566 13.6844C16.6566 14.7809 15.9816 15.4099 14.7945 15.4099H13.2306V11.9645ZM20.5327 19.5734C21.3879 19.5734 22.181 19.1448 22.541 18.4657H22.5692V19.5066H23.8294V15.1873C23.8294 13.9349 22.8167 13.1278 21.2584 13.1278C19.8127 13.1278 18.7437 13.946 18.7044 15.0704H19.9308C20.032 14.536 20.5327 14.1854 21.219 14.1854C22.0516 14.1854 22.5185 14.5694 22.5185 15.2764V15.755L20.8196 15.8552C19.2388 15.9498 18.3837 16.5899 18.3837 17.7031C18.3837 18.8275 19.2669 19.5734 20.5327 19.5734ZM20.8983 18.5436C20.1727 18.5436 19.7113 18.1986 19.7113 17.6697C19.7113 17.1243 20.1558 16.807 21.0053 16.757L22.5185 16.6623V17.1522C22.5185 17.9648 21.821 18.5436 20.8983 18.5436ZM25.5114 21.8666C26.8391 21.8666 27.4635 21.3657 28.0092 19.8461L30.4001 13.2113H29.0162L27.4129 18.3377H27.3847L25.7815 13.2113H24.3581L26.6646 19.5289L26.5409 19.9129C26.3327 20.5641 25.9952 20.8146 25.3933 20.8146C25.2864 20.8146 25.0782 20.8035 24.9939 20.7924V21.8332C25.0726 21.8555 25.4101 21.8666 25.5114 21.8666Z" fill="currentColor"/>
</svg>
