<svg width="32" height="32" viewBox="0 0 32 32" fill="none" xmlns="http://www.w3.org/2000/svg">
<path d="M12.0133 28.3333C11.76 28.3333 11.5067 28.24 11.3067 28.04L4.62667 21.36C4.24 20.9733 4.24 20.3333 4.62667 19.9466C5.01334 19.5599 5.65334 19.5599 6.04 19.9466L12.72 26.6266C13.1067 27.0133 13.1067 27.6533 12.72 28.04C12.52 28.2266 12.2667 28.3333 12.0133 28.3333Z" fill="currentColor"/>
<path d="M12.0134 28.3333C11.4668 28.3333 11.0134 27.88 11.0134 27.3333V4.66663C11.0134 4.11996 11.4668 3.66663 12.0134 3.66663C12.5601 3.66663 13.0134 4.11996 13.0134 4.66663V27.3333C13.0134 27.88 12.5601 28.3333 12.0134 28.3333Z" fill="currentColor"/>
<path d="M26.6801 12.3467C26.4268 12.3467 26.1734 12.2534 25.9734 12.0534L19.2934 5.37338C18.9068 4.98671 18.9068 4.34671 19.2934 3.96004C19.6801 3.57338 20.3201 3.57338 20.7068 3.96004L27.3868 10.64C27.7734 11.0267 27.7734 11.6667 27.3868 12.0534C27.1868 12.2534 26.9334 12.3467 26.6801 12.3467Z" fill="currentColor"/>
<path d="M19.9866 28.3333C19.4399 28.3333 18.9866 27.88 18.9866 27.3333V4.66663C18.9866 4.11996 19.4399 3.66663 19.9866 3.66663C20.5332 3.66663 20.9866 4.11996 20.9866 4.66663V27.3333C20.9866 27.88 20.5466 28.3333 19.9866 28.3333Z" fill="currentColor"/>
</svg>
