<svg width="32" height="32" viewBox="0 0 32 32" fill="none" xmlns="http://www.w3.org/2000/svg">
<path opacity="0.3" d="M16 8C21.7691 8 25.7987 11.5263 27.9375 18.2637L25.3955 19.0703C23.5837 13.3632 20.5025 10.667 16 10.667C11.4975 10.667 8.41626 13.3632 6.60449 19.0703L4.0625 18.2637C6.20135 11.5263 10.2309 8 16 8Z" fill="currentColor"/>
<path d="M5.33325 17.3334C7.54213 17.3335 9.33308 19.1245 9.33325 21.3334C9.33308 23.5423 7.54213 25.3332 5.33325 25.3334C3.12437 25.3332 1.33343 23.5423 1.33325 21.3334C1.33343 19.1245 3.12437 17.3335 5.33325 17.3334ZM26.6672 17.3334C28.876 17.3337 30.6671 19.1246 30.6672 21.3334C30.6671 23.5421 28.876 25.333 26.6672 25.3334C24.4582 25.3334 22.6674 23.5424 22.6672 21.3334C22.6674 19.1244 24.4582 17.3334 26.6672 17.3334ZM5.33325 20.0004C4.59713 20.0005 4.00042 20.5973 4.00024 21.3334C4.00042 22.0695 4.59713 22.6672 5.33325 22.6674C6.06937 22.6672 6.66706 22.0695 6.66724 21.3334C6.66706 20.5973 6.06937 20.0005 5.33325 20.0004ZM26.6663 20.0004C25.93 20.0005 25.3333 20.5971 25.3333 21.3334C25.3333 22.0696 25.93 22.6662 26.6663 22.6664C27.4026 22.6664 28.0002 22.0698 28.0002 21.3334C28.0002 20.597 27.4026 20.0004 26.6663 20.0004Z" fill="currentColor"/>
</svg>
