<svg width="32" height="32" viewBox="0 0 32 32" fill="none" xmlns="http://www.w3.org/2000/svg">
<path fill-rule="evenodd" clip-rule="evenodd" d="M12 5.33333C12 4.59695 11.403 4 10.6667 4C9.93029 4 9.33334 4.59695 9.33334 5.33333V6.66671C8.72129 6.66708 8.18767 6.67085 7.73997 6.70743C7.21284 6.7505 6.68855 6.84558 6.18404 7.10264C5.43139 7.48614 4.81947 8.09806 4.43598 8.85071C4.17892 9.35521 4.08383 9.8795 4.04076 10.4066C3.99996 10.906 3.99998 11.5124 4 12.2152V22.4514C3.99998 23.1543 3.99996 23.7606 4.04076 24.26C4.08383 24.7872 4.17892 25.3115 4.43598 25.816C4.81947 26.5686 5.43139 27.1805 6.18404 27.564C6.68855 27.8211 7.21284 27.9162 7.73997 27.9592C8.23934 28 8.84584 28 9.54861 28H22.4516C23.1544 28 23.7607 28 24.26 27.9592C24.7872 27.9162 25.3115 27.8211 25.816 27.564C26.5686 27.1805 27.1805 26.5686 27.564 25.816C27.8211 25.3115 27.9162 24.7872 27.9592 24.26C28 23.7606 28 23.1543 28 22.4514V12.2152C28 11.5124 28 10.9061 27.9592 10.4066C27.9162 9.8795 27.8211 9.35521 27.564 8.85071C27.1805 8.09806 26.5686 7.48614 25.816 7.10264C25.3115 6.84558 24.7872 6.7505 24.26 6.70743C23.8123 6.67085 23.2787 6.66708 22.6667 6.66671V5.33333C22.6667 4.59695 22.0697 4 21.3333 4C20.597 4 20 4.59695 20 5.33333V6.66667H12V5.33333ZM16.6156 12.4133C16.3879 11.8657 15.6123 11.8657 15.3846 12.4133L14.332 14.9439C14.2366 15.1733 14.0216 15.3306 13.7742 15.3521L11.283 15.5687C10.7114 15.6184 10.4654 16.319 10.8805 16.7151L12.7728 18.5208C12.9444 18.6845 13.0161 18.9271 12.961 19.1578L12.3202 21.8443C12.1826 22.4212 12.8101 22.8771 13.3162 22.568L15.6526 21.1409C15.8659 21.0106 16.1343 21.0106 16.3476 21.1409L18.684 22.568C19.1901 22.8771 19.8176 22.4212 19.68 21.8443L19.0393 19.1586C18.9842 18.9275 19.0563 18.6844 19.2285 18.5207L21.1272 16.716C21.5436 16.3203 21.2978 15.6183 20.7255 15.5687L18.2261 15.352C17.9786 15.3305 17.7636 15.1732 17.6682 14.9438L16.6156 12.4133Z" fill="currentColor"/>
</svg>
