<svg width="32" height="32" viewBox="0 0 32 32" fill="none" xmlns="http://www.w3.org/2000/svg">
<path d="M31 13.4174C31 8.13444 24.2705 3.83594 16 3.83594C7.7295 3.83594 1 8.13444 1 13.4174V18.5834V18.5879C1 23.8689 7.729 28.1649 16 28.1649C24.271 28.1649 31 23.8689 31 18.5879V18.5834V13.4174ZM16 4.83594C23.719 4.83594 30 8.68594 30 13.4174C30 18.1489 23.719 22.0004 16 22.0004C8.281 22.0004 2 18.1504 2 13.4174C2 8.68444 8.281 4.83594 16 4.83594ZM16 27.1649C8.282 27.1649 2.003 23.3189 2 18.5914V18.5869V16.8504C4.1675 20.4429 9.6235 23.0004 16 23.0004C22.3765 23.0004 27.8325 20.4444 30 16.8504V18.5859V18.5904C29.997 23.3189 23.718 27.1649 16 27.1649Z" fill="currentColor" stroke="currentColor"/>
</svg>
