<svg width="32" height="32" viewBox="0 0 32 32" fill="none" xmlns="http://www.w3.org/2000/svg">
<path d="M14.8001 30.3333H9.20008C3.98675 30.3333 1.66675 28.0133 1.66675 22.8V17.2C1.66675 11.9866 3.98675 9.66663 9.20008 9.66663H14.8001C20.0134 9.66663 22.3334 11.9866 22.3334 17.2V22.8C22.3334 28.0133 20.0134 30.3333 14.8001 30.3333ZM9.20008 11.6666C5.06675 11.6666 3.66675 13.0666 3.66675 17.2V22.8C3.66675 26.9333 5.06675 28.3333 9.20008 28.3333H14.8001C18.9334 28.3333 20.3334 26.9333 20.3334 22.8V17.2C20.3334 13.0666 18.9334 11.6666 14.8001 11.6666H9.20008V11.6666Z" fill="currentColor"/>
<path d="M22.8001 22.3333H21.3334C20.7867 22.3333 20.3334 21.88 20.3334 21.3333V17.2C20.3334 13.0666 18.9334 11.6666 14.8001 11.6666H10.6667C10.1201 11.6666 9.66675 11.2133 9.66675 10.6666V9.19996C9.66675 3.98663 11.9867 1.66663 17.2001 1.66663H22.8001C28.0134 1.66663 30.3334 3.98663 30.3334 9.19996V14.8C30.3334 20.0133 28.0134 22.3333 22.8001 22.3333ZM22.3334 20.3333H22.8001C26.9334 20.3333 28.3334 18.9333 28.3334 14.8V9.19996C28.3334 5.06663 26.9334 3.66663 22.8001 3.66663H17.2001C13.0667 3.66663 11.6667 5.06663 11.6667 9.19996V9.66663H14.8001C20.0134 9.66663 22.3334 11.9866 22.3334 17.2V20.3333Z" fill="currentColor"/>
</svg>
