<svg width="32" height="32" viewBox="0 0 32 32" fill="none" xmlns="http://www.w3.org/2000/svg">
<path d="M17 21.2266H17.8667C18.7333 21.2266 19.4533 20.4533 19.4533 19.52C19.4533 18.36 19.04 18.1333 18.36 17.8933L17.0133 17.4266V21.2266H17Z" fill="currentColor"/>
<path d="M15.9599 2.53335C8.59993 2.56001 2.63993 8.54668 2.66659 15.9067C2.69326 23.2667 8.67993 29.2267 16.0399 29.2C23.3999 29.1733 29.3599 23.1867 29.3333 15.8267C29.3066 8.46668 23.3199 2.52001 15.9599 2.53335ZM19.0133 16C20.0533 16.36 21.4533 17.1333 21.4533 19.52C21.4533 21.5733 19.8399 23.2267 17.8666 23.2267H16.9999V24C16.9999 24.5467 16.5466 25 15.9999 25C15.4533 25 14.9999 24.5467 14.9999 24V23.2267H14.5199C12.3333 23.2267 10.5599 21.3867 10.5599 19.12C10.5599 18.5733 11.0133 18.12 11.5599 18.12C12.1066 18.12 12.5599 18.5733 12.5599 19.12C12.5599 20.28 13.4399 21.2267 14.5199 21.2267H14.9999V16.72L12.9866 16C11.9466 15.64 10.5466 14.8667 10.5466 12.48C10.5466 10.4267 12.1599 8.77335 14.1333 8.77335H14.9999V8.00001C14.9999 7.45335 15.4533 7.00001 15.9999 7.00001C16.5466 7.00001 16.9999 7.45335 16.9999 8.00001V8.77335H17.4799C19.6666 8.77335 21.4399 10.6133 21.4399 12.88C21.4399 13.4267 20.9866 13.88 20.4399 13.88C19.8933 13.88 19.4399 13.4267 19.4399 12.88C19.4399 11.72 18.5599 10.7733 17.4799 10.7733H16.9999V15.28L19.0133 16Z" fill="currentColor"/>
<path d="M12.5601 12.4933C12.5601 13.6533 12.9734 13.88 13.6534 14.12L15.0001 14.5866V10.7733H14.1334C13.2667 10.7733 12.5601 11.5466 12.5601 12.4933Z" fill="currentColor"/>
</svg>
