<svg width="32" height="32" viewBox="0 0 32 32" fill="none" xmlns="http://www.w3.org/2000/svg">
<path fill-rule="evenodd" clip-rule="evenodd" d="M28.4002 16.2909C28.4002 15.3895 28.3246 14.5202 28.1823 13.6882H16.2512V18.6179H23.0848C22.7914 20.2249 21.904 21.5921 20.558 22.5077L24.6364 25.7094C27.0243 23.4802 28.4002 20.1859 28.4002 16.2909Z" fill="#4285F4"/>
<path fill-rule="evenodd" clip-rule="evenodd" d="M16.252 28.8C19.6662 28.8 22.5408 27.6658 24.6372 25.7103L20.5588 22.5085C19.4237 23.2818 17.9617 23.7334 16.252 23.7334C12.9521 23.7334 10.1512 21.4828 9.14963 18.45L4.94824 21.7477C7.03047 25.929 11.3091 28.8 16.252 28.8Z" fill="#34A853"/>
<path fill-rule="evenodd" clip-rule="evenodd" d="M9.14916 18.4496C8.89265 17.6763 8.75203 16.8513 8.75203 15.9998C8.75203 15.1483 8.89265 14.3234 9.14916 13.55L4.94783 10.2523C4.08683 11.9803 3.6001 13.9323 3.6001 15.9998C3.6001 18.0673 4.08683 20.0195 4.94783 21.7473L9.14916 18.4496Z" fill="#FABB05"/>
<path fill-rule="evenodd" clip-rule="evenodd" d="M16.252 8.26657C18.1164 8.26657 19.7874 8.91541 21.1053 10.1866V10.1883L24.7162 6.53502C22.5233 4.46927 19.6644 3.19995 16.252 3.19995C11.3091 3.19995 7.03047 6.07104 4.94824 10.2523L9.14963 13.55C10.1512 10.5172 12.9521 8.26657 16.252 8.26657Z" fill="#E94235"/>
</svg>
