<svg width="32" height="32" viewBox="0 0 32 32" fill="none" xmlns="http://www.w3.org/2000/svg">
<g clip-path="url(#clip0_864_29143)">
<path d="M27.2019 28.8024H25.6019V24.8024C25.6019 20.9624 23.2019 17.6024 20.0019 16.0024C23.2019 14.5624 25.6019 11.2024 25.6019 7.20244V3.20244H27.2019C28.1619 3.20244 28.8019 2.40244 28.8019 1.60244C28.8019 0.642441 28.1619 0.00244141 27.2019 0.00244141H4.8019C4.0019 0.00244141 3.2019 0.642441 3.2019 1.60244C3.2019 2.40244 4.0019 3.20244 4.8019 3.20244H6.4019V7.20244C6.4019 11.2024 8.8019 14.5624 12.1619 16.0024C8.8019 17.4424 6.4019 20.8024 6.4019 24.8024V28.8024H4.8019C4.0019 28.8024 3.2019 29.4424 3.2019 30.4024C3.2019 31.2024 4.0019 32.0024 4.8019 32.0024H27.2019C28.1619 32.0024 28.8019 31.2024 28.8019 30.4024C28.8019 29.4424 28.1619 28.8024 27.2019 28.8024ZM9.6019 7.36244V6.40244H22.4019V7.36244C22.4019 11.8424 18.4019 13.1224 16.0019 14.4024C13.6019 13.1224 9.6019 11.8424 9.6019 7.36244ZM9.6019 28.8024C9.6019 27.2024 11.6819 23.5224 16.0019 22.4024C20.3219 23.5224 22.4019 27.2024 22.4019 28.8024H9.6019Z" fill="currentColor"/>
</g>
<defs>
<clipPath id="clip0_864_29143">
<rect width="32" height="32" fill="white"/>
</clipPath>
</defs>
</svg>
