<svg width="32" height="32" viewBox="0 0 32 32" fill="none" xmlns="http://www.w3.org/2000/svg">
<path fill-rule="evenodd" clip-rule="evenodd" d="M6.66667 9.33333C6.66667 7.86057 7.86057 6.66667 9.33333 6.66667H22.6667C24.1394 6.66667 25.3333 7.86057 25.3333 9.33333V18.9028C26.8274 20.4762 28 22.6667 28 22.6667V9.33333C28 6.38781 25.6122 4 22.6667 4H9.33333C6.38781 4 4 6.38781 4 9.33333V22.6667C4.48971 21.3312 5.47405 19.0324 6.66667 17.0504V9.33333Z" fill="currentColor" opacity="0.4"/>
<path fill-rule="evenodd" clip-rule="evenodd" d="M20.6667 13.3334C21.7712 13.3334 22.6667 12.4379 22.6667 11.3334C22.6667 10.2288 21.7712 9.33337 20.6667 9.33337C19.5621 9.33337 18.6667 10.2288 18.6667 11.3334C18.6667 12.4379 19.5621 13.3334 20.6667 13.3334ZM10.6667 13.3334C8 13.3334 4.98976 19.9675 4 22.6667C4 25.6122 6.38617 28 9.33169 28H22.6687C25.6142 28 28 25.6122 28 22.6667C28 22.6667 25.1449 17.3334 22.6687 17.3334C21.0976 17.3334 19.5819 18.9515 18.7606 20.206C18.708 20.2864 18.6587 20.368 18.61 20.4486C18.3335 20.9063 18.0754 21.3334 17.3334 21.3334C16.4608 21.3334 16.1996 20.7007 15.942 20.0289C14.6696 16.711 12.6667 13.3334 10.6667 13.3334Z" fill="currentColor"/>
</svg>
