<svg width="32" height="32" viewBox="0 0 32 32" fill="none" xmlns="http://www.w3.org/2000/svg">
<path d="M2.66675 17.2933V20C2.66675 26.6666 5.33341 29.3333 12.0001 29.3333H20.0001C26.6667 29.3333 29.3334 26.6666 29.3334 20V12C29.3334 5.33329 26.6667 2.66663 20.0001 2.66663H12.0001C5.33341 2.66663 2.66675 5.33329 2.66675 12" stroke="currentColor" stroke-width="1.5" stroke-linecap="round" stroke-linejoin="round"/>
<path d="M21.7068 18.1466C20.2001 19.6533 18.0401 20.12 16.1334 19.52L12.6801 22.96C12.4401 23.2133 11.9468 23.3733 11.5868 23.32L9.98677 23.1066C9.45343 23.04 8.97343 22.5333 8.89343 22.0133L8.6801 20.4133C8.62677 20.0666 8.8001 19.5733 9.0401 19.32L12.4801 15.88C11.8934 13.9733 12.3468 11.8133 13.8534 10.3066C16.0134 8.14665 19.5334 8.14665 21.7068 10.3066C23.8668 12.4533 23.8668 15.9733 21.7068 18.1466Z" stroke="currentColor" stroke-width="1.5" stroke-miterlimit="10" stroke-linecap="round" stroke-linejoin="round"/>
<path d="M13.9334 21.7067L12.8 20.5601" stroke="currentColor" stroke-width="1.5" stroke-miterlimit="10" stroke-linecap="round" stroke-linejoin="round"/>
<path d="M17.8593 14.2666H17.8713" stroke="currentColor" stroke-width="2" stroke-linecap="round" stroke-linejoin="round"/>
</svg>
