<svg width="32" height="32" viewBox="0 0 32 32" fill="none" xmlns="http://www.w3.org/2000/svg">
<path d="M7.46659 18.6667C6.71985 18.6667 6.34648 18.6667 6.06127 18.5214C5.81038 18.3936 5.60641 18.1896 5.47858 17.9387C5.33325 17.6535 5.33325 17.2801 5.33325 16.5334L5.33325 9.60004C5.33325 8.10657 5.33325 7.35983 5.6239 6.7894C5.87956 6.28763 6.28751 5.87969 6.78928 5.62402C7.35971 5.33337 8.10645 5.33337 9.59992 5.33337L22.3999 5.33337C23.8934 5.33337 24.6401 5.33337 25.2106 5.62402C25.7123 5.87969 26.1203 6.28763 26.3759 6.7894C26.6666 7.35983 26.6666 8.10657 26.6666 9.60004V16.5334C26.6666 17.2801 26.6666 17.6535 26.5213 17.9387C26.3934 18.1896 26.1895 18.3935 25.9386 18.5214C25.6534 18.6667 25.28 18.6667 24.5333 18.6667L7.46659 18.6667Z" fill="currentColor"/>
<path d="M6.2223 26.6667C5.39566 26.6667 4.98234 26.6667 4.64323 26.5758C3.72299 26.3293 3.00419 25.6105 2.75761 24.6902C2.66675 24.3511 2.66675 23.9378 2.66675 23.1112C2.66675 22.6978 2.66675 22.4912 2.71218 22.3216C2.83547 21.8615 3.19487 21.5021 3.65499 21.3788C3.82454 21.3334 4.0312 21.3334 4.44453 21.3334L27.5556 21.3334C27.969 21.3334 28.1756 21.3334 28.3452 21.3788C28.8053 21.5021 29.1647 21.8615 29.288 22.3216C29.3334 22.4912 29.3334 22.6978 29.3334 23.1112C29.3334 23.9378 29.3334 24.3511 29.2425 24.6902C28.996 25.6105 28.2772 26.3293 27.3569 26.5758C27.0178 26.6667 26.6045 26.6667 25.7779 26.6667L6.2223 26.6667Z" fill="currentColor"/>
</svg>
