<svg width="32" height="32" viewBox="0 0 32 32" fill="none" xmlns="http://www.w3.org/2000/svg">
<path d="M19.3993 22.0118H12.4751V9.76086H19.3993V22.0118Z" fill="#FF5F00"/>
<path d="M12.9183 15.8846C12.9183 13.3995 14.1001 11.1857 15.9406 9.75913C14.5947 8.71592 12.8961 8.09326 11.05 8.09326C6.6797 8.09326 3.13696 11.5815 3.13696 15.8846C3.13696 20.1877 6.6797 23.676 11.05 23.676C12.8961 23.676 14.5947 23.0534 15.9406 22.0101C14.1001 20.5835 12.9183 18.3699 12.9183 15.8846Z" fill="#EB001B"/>
<path d="M28.7371 15.8846C28.7371 20.1877 25.1944 23.676 20.824 23.676C18.978 23.676 17.2793 23.0534 15.9329 22.0101C17.7739 20.5835 18.9558 18.3699 18.9558 15.8846C18.9558 13.3995 17.7739 11.1857 15.9329 9.75913C17.2793 8.71592 18.978 8.09326 20.824 8.09326C25.1944 8.09326 28.7371 11.5815 28.7371 15.8846Z" fill="#F79E1B"/>
</svg>
