<svg width="32" height="32" viewBox="0 0 32 32" fill="none" xmlns="http://www.w3.org/2000/svg">
<path fill-rule="evenodd" clip-rule="evenodd" d="M24.4383 24.9907C22.1399 26.8716 19.2018 28 16.0001 28C8.63628 28 2.66675 22.0305 2.66675 14.6667C2.66675 7.30291 8.63628 1.33337 16.0001 1.33337C23.3639 1.33337 29.3334 7.30291 29.3334 14.6667C29.3334 17.8684 28.2049 20.8066 26.324 23.1051L30.2762 27.0573C30.7969 27.578 30.7969 28.4223 30.2762 28.943C29.7555 29.4636 28.9113 29.4636 28.3906 28.943L24.4383 24.9907ZM26.6667 14.6667C26.6667 20.5577 21.8911 25.3334 16.0001 25.3334C10.109 25.3334 5.33341 20.5577 5.33341 14.6667C5.33341 8.77567 10.109 4.00004 16.0001 4.00004C21.8911 4.00004 26.6667 8.77567 26.6667 14.6667Z" fill="currentColor"/>
</svg>
