<svg width="32" height="32" viewBox="0 0 32 32" fill="none" xmlns="http://www.w3.org/2000/svg">
<path d="M20 16C20 13.7867 18.2133 12 16 12C13.7867 12 12 13.7867 12 16C12 18.2133 13.7867 20 16 20C16.5467 20 17.08 19.8933 17.56 19.68" stroke="currentColor" stroke-width="1.5" stroke-miterlimit="10" stroke-linecap="round" stroke-linejoin="round"/>
<path d="M9.17334 27.44L10.6267 28.28C11.68 28.9066 13.04 28.5333 13.6667 27.48L13.8133 27.2266C15.0133 25.1333 16.9867 25.1333 18.2 27.2266L18.3467 27.48C18.9733 28.5333 20.3333 28.9066 21.3867 28.28L23.6933 26.96C24.9067 26.2666 25.32 24.7066 24.6267 23.5066C23.4133 21.4133 24.4 19.7066 26.8133 19.7066C28.2 19.7066 29.3467 18.5733 29.3467 17.1733V14.8266C29.3467 13.44 28.2133 12.2933 26.8133 12.2933C25.4667 12.2933 24.56 11.76 24.24 10.92C23.9867 10.2666 24.0933 9.4133 24.6267 8.4933C25.32 7.27997 24.9067 5.7333 23.6933 5.03997L22.6133 4.42664" stroke="currentColor" stroke-width="1.5" stroke-miterlimit="10" stroke-linecap="round" stroke-linejoin="round"/>
<path d="M18.1867 4.77333C16.9867 6.86666 15.0134 6.86666 13.8001 4.77333L13.6534 4.52C13.0401 3.46666 11.6801 3.09333 10.6267 3.72L8.32008 5.04C7.10675 5.73333 6.69341 7.29333 7.38675 8.50666C8.60008 10.5867 7.61341 12.2933 5.20008 12.2933C3.81341 12.2933 2.66675 13.4267 2.66675 14.8267V17.1733C2.66675 18.56 3.80008 19.7067 5.20008 19.7067C7.61341 19.7067 8.60008 21.4133 7.38675 23.5067" stroke="currentColor" stroke-width="1.5" stroke-miterlimit="10" stroke-linecap="round" stroke-linejoin="round"/>
</svg>
