<svg width="32" height="32" viewBox="0 0 32 32" fill="none" xmlns="http://www.w3.org/2000/svg">
<path fill-rule="evenodd" clip-rule="evenodd" d="M15.3335 2.66663C14.2289 2.66663 13.3335 3.56206 13.3335 4.66663V5.15251C13.3335 5.4567 13.1269 5.72019 12.8363 5.8103C12.2083 6.00507 11.6051 6.25631 11.0327 6.55807C10.7636 6.69996 10.4311 6.65976 10.216 6.44462L9.87182 6.10046C9.09077 5.31942 7.82444 5.31942 7.0434 6.10046L6.10059 7.04327C5.31954 7.82432 5.31954 9.09065 6.10059 9.8717L6.44475 10.2159C6.65988 10.431 6.70008 10.7635 6.5582 11.0326C6.25645 11.605 6.00522 12.2081 5.81045 12.8361C5.72034 13.1267 5.45684 13.3333 5.15265 13.3333H4.66675C3.56218 13.3333 2.66675 14.2287 2.66675 15.3333V16.6666C2.66675 17.7712 3.56218 18.6666 4.66675 18.6666H5.15265C5.45684 18.6666 5.72034 18.8733 5.81045 19.1638C6.00522 19.7918 6.25645 20.3949 6.5582 20.9673C6.70008 21.2364 6.65988 21.5689 6.44475 21.7841L6.10059 22.1282C5.31954 22.9093 5.31954 24.1756 6.10059 24.9566L7.0434 25.8995C7.82444 26.6805 9.09077 26.6805 9.87182 25.8995L10.216 25.5553C10.4311 25.3402 10.7636 25.3 11.0327 25.4418C11.6051 25.7436 12.2083 25.9948 12.8363 26.1896C13.1269 26.2797 13.3335 26.5432 13.3335 26.8474V27.3333C13.3335 28.4379 14.2289 29.3333 15.3335 29.3333H16.6668C17.7714 29.3333 18.6668 28.4379 18.6668 27.3333V26.8474C18.6668 26.5432 18.8735 26.2797 19.164 26.1896C19.7919 25.9948 20.3951 25.7436 20.9674 25.4418C21.2366 25.3 21.569 25.3402 21.7842 25.5553L22.1283 25.8995C22.9094 26.6805 24.1757 26.6805 24.9568 25.8995L25.8996 24.9566C26.6806 24.1756 26.6806 22.9093 25.8996 22.1282L25.5554 21.7841C25.3403 21.5689 25.3001 21.2364 25.442 20.9673C25.7437 20.3949 25.9949 19.7918 26.1897 19.1638C26.2798 18.8733 26.5433 18.6666 26.8475 18.6666H27.3334C28.438 18.6666 29.3334 17.7712 29.3334 16.6666V15.3333C29.3334 14.2287 28.438 13.3333 27.3334 13.3333H26.8475C26.5433 13.3333 26.2798 13.1267 26.1897 12.8361C25.9949 12.2081 25.7437 11.605 25.442 11.0326C25.3001 10.7635 25.3403 10.431 25.5554 10.2159L25.8996 9.8717C26.6806 9.09065 26.6806 7.82432 25.8996 7.04327L24.9568 6.10046C24.1757 5.31942 22.9094 5.31942 22.1283 6.10046L21.7842 6.44462C21.569 6.65976 21.2366 6.69996 20.9674 6.55807C20.3951 6.25634 19.792 6.00512 19.164 5.81035C18.8735 5.72024 18.6668 5.45675 18.6668 5.15256V4.66663C18.6668 3.56206 17.7714 2.66663 16.6668 2.66663H15.3335ZM16.0001 20C18.2092 20 20.0001 18.2091 20.0001 16C20.0001 13.7908 18.2092 12 16.0001 12C13.7909 12 12.0001 13.7908 12.0001 16C12.0001 18.2091 13.7909 20 16.0001 20Z" fill="currentColor"/>
</svg>
