<svg width="32" height="32" viewBox="0 0 32 32" fill="none" xmlns="http://www.w3.org/2000/svg">
<path d="M16.5001 2.77402C17.6721 3.27402 24.7041 6.27536 25.8748 6.77536C26.3668 6.98469 26.6667 7.4487 26.6667 7.98337C26.6667 13.8234 26.4334 16.4367 25.3748 19.446C23.9894 23.386 21.2694 26.526 16.6667 29.1567C16.4621 29.274 16.2311 29.3327 16.0001 29.3327C16.0001 19.6507 16.0001 4.95865 16.0001 2.66663C16.173 2.67161 16.3447 2.70741 16.5001 2.77402Z" fill="currentColor" opacity="0.4"/>
<path d="M15.4999 2.77475C14.3279 3.27475 7.29591 6.27609 6.12524 6.77609C5.63324 6.98543 5.33325 7.44943 5.33325 7.9841C5.33325 13.8241 5.56658 16.4374 6.62524 19.4467C8.01058 23.3867 10.7306 26.5268 15.3333 29.1574C15.5379 29.2748 15.7689 29.3334 15.9999 29.3334C15.9999 19.6514 15.9999 4.95938 15.9999 2.66736C15.827 2.67235 15.6553 2.70814 15.4999 2.77475Z" fill="currentColor"/>
</svg>
