<svg width="32" height="32" viewBox="0 0 32 32" fill="none" xmlns="http://www.w3.org/2000/svg">
<path fill-rule="evenodd" clip-rule="evenodd" d="M15.347 0.162805C15.754 -0.0542684 16.246 -0.0542684 16.653 0.162805L19.8793 1.88352C22.4833 3.27229 25.402 4 28.368 4H29.6364C30.3895 4 31 4.59696 31 5.33333V12.2963C31 19.5901 26.9391 26.3056 20.4029 29.8205L16.6571 31.8349C16.2479 32.055 15.7521 32.055 15.3429 31.8349L11.5971 29.8205C5.0609 26.3056 1 19.5901 1 12.2963V5.33333C1 4.59696 1.61053 4 2.36364 4H3.63193C6.59804 4 9.51674 3.27229 12.1207 1.88352L15.347 0.162805ZM10.5455 14.6667C10.5455 11.7211 12.9875 9.33332 16 9.33332C19.0124 9.33332 21.4545 11.7211 21.4545 14.6667C21.4545 17.6121 19.0124 20 16 20C12.9875 20 10.5455 17.6121 10.5455 14.6667Z" fill="currentColor"/>
</svg>
