<svg width="32" height="32" viewBox="0 0 32 32" fill="none" xmlns="http://www.w3.org/2000/svg">
<path d="M16.0001 2.66663C15.2641 2.66663 14.6667 3.26396 14.6667 3.99996V6.66663C14.6667 7.40263 15.2641 7.99996 16.0001 7.99996C16.7361 7.99996 17.3334 7.40263 17.3334 6.66663V3.99996C17.3334 3.26396 16.7361 2.66663 16.0001 2.66663ZM7.50008 6.16663C7.15874 6.16663 6.84408 6.32263 6.58408 6.58397C6.06275 7.10397 6.06275 7.93862 6.58408 8.45862L8.37475 10.292C8.89608 10.812 9.77207 10.8133 10.2921 10.292C10.8121 9.77062 10.8134 8.89464 10.2921 8.37464L8.45874 6.58397C8.1974 6.32263 7.84141 6.16663 7.50008 6.16663ZM24.4587 6.20797C24.1174 6.20797 23.8027 6.32263 23.5414 6.58397L21.7081 8.37464C21.1881 8.89597 21.1881 9.77062 21.7081 10.292C22.2294 10.812 23.1041 10.812 23.6254 10.292L25.4161 8.45862C25.9374 7.93729 25.9374 7.10397 25.4161 6.58397C25.1561 6.32263 24.8001 6.20797 24.4587 6.20797ZM4.00008 14.6666C3.26408 14.6666 2.66675 15.264 2.66675 16C2.66675 16.736 3.26408 17.3333 4.00008 17.3333H6.66674C7.40274 17.3333 8.00008 16.736 8.00008 16C8.00008 15.264 7.40274 14.6666 6.66674 14.6666H4.00008ZM25.3334 14.6666C24.5974 14.6666 24.0001 15.264 24.0001 16C24.0001 16.736 24.5974 17.3333 25.3334 17.3333H28.0001C28.7361 17.3333 29.3334 16.736 29.3334 16C29.3334 15.264 28.7361 14.6666 28.0001 14.6666H25.3334ZM9.33341 21.3333C8.99208 21.332 8.63609 21.448 8.37475 21.708L6.54142 23.5413C6.02009 24.0613 6.02275 24.8946 6.54142 25.416C7.06142 25.9386 7.93607 25.936 8.45874 25.416L10.2921 23.6253C10.8134 23.1053 10.8107 22.2306 10.2921 21.708C10.0321 21.448 9.67474 21.3346 9.33341 21.3333ZM22.6667 21.3333C22.3254 21.3333 21.9681 21.448 21.7081 21.708C21.1881 22.2293 21.1867 23.1053 21.7081 23.6253L23.5841 25.4586C24.1041 25.9786 24.9387 25.98 25.4587 25.4586C25.9787 24.9373 25.9801 24.0613 25.4587 23.5413L23.6254 21.708C23.3641 21.448 23.0081 21.3333 22.6667 21.3333ZM16.0001 24C15.2641 24 14.6667 24.5973 14.6667 25.3333V28C14.6667 28.736 15.2641 29.3333 16.0001 29.3333C16.7361 29.3333 17.3334 28.736 17.3334 28V25.3333C17.3334 24.5973 16.7361 24 16.0001 24Z" fill="currentColor" opacity="0.4"/>
<path fill-rule="evenodd" clip-rule="evenodd" d="M15.9999 20C18.2091 20 19.9999 18.2092 19.9999 16C19.9999 13.7909 18.2091 12 15.9999 12C13.7908 12 11.9999 13.7909 11.9999 16C11.9999 18.2092 13.7908 20 15.9999 20ZM15.9999 22.6667C19.6818 22.6667 22.6666 19.6819 22.6666 16C22.6666 12.3181 19.6818 9.33337 15.9999 9.33337C12.318 9.33337 9.33325 12.3181 9.33325 16C9.33325 19.6819 12.318 22.6667 15.9999 22.6667Z" fill="currentColor"/>
</svg>
