<svg width="32" height="32" viewBox="0 0 32 32" fill="none" xmlns="http://www.w3.org/2000/svg">
<path fill-rule="evenodd" clip-rule="evenodd" d="M8.22769 6.66663C8.08029 7.08366 8.00008 7.53245 8.00008 7.99996V9.33329H6.66675C5.93037 9.33329 5.33341 9.93025 5.33341 10.6666V14.8954C5.33341 15.249 5.47389 15.5882 5.72394 15.8382L15.0573 25.1715C15.578 25.6922 16.4222 25.6922 16.9429 25.1715L18.1145 24L18.505 24.3905C19.0539 24.9394 19.7227 25.2954 20.4271 25.4586L18.8285 27.0572C17.2664 28.6192 14.7338 28.6193 13.1717 27.0572L3.83832 17.7238C3.08818 16.9737 2.66675 15.9563 2.66675 14.8954V10.6666C2.66675 8.45749 4.45761 6.66663 6.66675 6.66663H8.22769Z" fill="currentColor" opacity="0.4"/>
<path fill-rule="evenodd" clip-rule="evenodd" d="M10.6667 8C10.6667 7.26362 11.2636 6.66667 12 6.66667H16.2288C16.5824 6.66667 16.9215 6.80714 17.1716 7.05719L26.5049 16.3905C27.0256 16.9112 27.0256 17.7554 26.5049 18.2761L22.2761 22.5049C21.7554 23.0256 20.9112 23.0256 20.3905 22.5049L11.0572 13.1716C10.8071 12.9215 10.6667 12.5824 10.6667 12.2288V8ZM12 4C9.79086 4 8 5.79086 8 8V12.2288C8 13.2896 8.42143 14.307 9.17157 15.0572L18.5049 24.3905C20.067 25.9526 22.5997 25.9526 24.1618 24.3905L28.3905 20.1618C29.9526 18.5997 29.9526 16.067 28.3905 14.5049L19.0572 5.17157C18.307 4.42143 17.2896 4 16.2288 4H12ZM14.6667 12C15.403 12 16 11.403 16 10.6667C16 9.93029 15.403 9.33333 14.6667 9.33333C13.9303 9.33333 13.3333 9.93029 13.3333 10.6667C13.3333 11.403 13.9303 12 14.6667 12Z" fill="currentColor"/>
</svg>
