<svg width="32" height="32" viewBox="0 0 32 32" fill="none" xmlns="http://www.w3.org/2000/svg">
<path d="M13.3333 16C13.3333 17.4733 14.5266 18.6666 15.9999 18.6666C17.4733 18.6666 18.6666 17.4733 18.6666 16C18.6666 14.5266 17.4733 13.3333 15.9999 13.3333C14.5266 13.3333 13.3333 14.5266 13.3333 16Z" fill="currentColor"/>
<path d="M13.3333 26.6667C13.3333 28.14 14.5266 29.3334 15.9999 29.3334C17.4733 29.3334 18.6666 28.14 18.6666 26.6667C18.6666 25.1934 17.4733 24 15.9999 24C14.5266 24 13.3333 25.1934 13.3333 26.6667ZM13.3333 5.33338C13.3333 6.80671 14.5266 8.00004 15.9999 8.00004C17.4733 8.00004 18.6666 6.80671 18.6666 5.33338C18.6666 3.86004 17.4733 2.66671 15.9999 2.66671C14.5266 2.66671 13.3333 3.86004 13.3333 5.33338Z" fill="currentColor"/>
</svg>
