<svg width="32" height="32" viewBox="0 0 32 32" fill="none" xmlns="http://www.w3.org/2000/svg">
<path d="M21.0401 2.66663H10.9601C5.92008 2.66663 4.66675 4.01329 4.66675 9.38663V24.4C4.66675 27.9466 6.61341 28.7866 8.97341 26.2533L8.98675 26.24C10.0801 25.08 11.7467 25.1733 12.6934 26.44L14.0401 28.24C15.1201 29.6666 16.8667 29.6666 17.9467 28.24L19.2934 26.44C20.2534 25.16 21.9201 25.0666 23.0134 26.24C25.3867 28.7733 27.3201 27.9333 27.3201 24.3866V9.38663C27.3334 4.01329 26.0801 2.66663 21.0401 2.66663ZM19.6667 14.3333H12.3334C11.7867 14.3333 11.3334 13.88 11.3334 13.3333C11.3334 12.7866 11.7867 12.3333 12.3334 12.3333H19.6667C20.2134 12.3333 20.6667 12.7866 20.6667 13.3333C20.6667 13.88 20.2134 14.3333 19.6667 14.3333Z" fill="currentColor"/>
</svg>
