<svg width="32" height="32" viewBox="0 0 32 32" fill="none" xmlns="http://www.w3.org/2000/svg">
<path d="M12.7888 19.224C17.1338 19.224 22.9089 19.712 22.9089 23.933C22.9086 28.6667 15.2913 28.6664 12.7888 28.6664C12.237 28.6664 11.789 28.2217 11.7888 27.6703C11.7888 27.1201 12.2369 26.6732 12.7888 26.6732C16.4937 26.6732 20.9095 26.1987 20.9099 23.933C20.9099 22.1321 18.1777 21.2172 12.7888 21.2172C9.08374 21.2172 4.66675 21.692 4.66675 23.9594C4.66677 24.467 4.81603 25.122 5.97827 25.6908C6.45019 25.922 7.04626 26.1152 7.74878 26.264C8.28874 26.3783 8.6343 26.9071 8.51831 27.4467C8.40364 27.9849 7.87272 28.3315 7.33276 28.2133C6.47031 28.0299 5.71826 27.7844 5.09839 27.4828C3.08931 26.4993 2.66678 25.0226 2.66675 23.9594C2.66675 19.224 10.285 19.224 12.7888 19.224ZM23.449 18.2836C24.2209 18.3367 24.9955 18.4482 25.7527 18.6156C27.4391 18.9465 28.5493 19.6272 29.032 20.6371C29.4333 21.4783 29.4332 22.4404 29.032 23.2816C28.5561 24.2823 27.4474 24.9672 25.7371 25.3168C25.6691 25.3301 25.6019 25.3363 25.5339 25.3363C25.07 25.3363 24.6524 25.0122 24.5564 24.5404C24.446 24.0009 24.7945 23.4749 25.3357 23.3646C26.3528 23.1573 27.0423 22.8152 27.2263 22.4271C27.3674 22.1295 27.3672 21.7894 27.2273 21.4945C27.0393 21.1038 26.3522 20.7648 25.3416 20.5668C24.6591 20.4153 23.9844 20.318 23.3113 20.2728C22.7608 20.2342 22.3449 19.7601 22.3835 19.2113C22.4209 18.6597 22.9077 18.2557 23.449 18.2836ZM12.7888 3.33337C16.5631 3.33337 19.6333 6.39526 19.6335 10.1576C19.6335 13.9201 16.5632 16.9828 12.7888 16.9828C11.2423 16.9827 9.78478 16.4865 8.5769 15.5482C8.14132 15.2092 8.06321 14.5833 8.40308 14.1488C8.74313 13.7159 9.36959 13.6375 9.80542 13.975C10.66 14.6381 11.6917 14.9886 12.7888 14.9886C15.4606 14.9886 17.6335 12.821 17.6335 10.1576C17.6333 7.49438 15.4605 5.32654 12.7888 5.32654C10.1159 5.32664 7.94335 7.49444 7.94312 10.1576C7.94312 10.7077 7.4949 11.1545 6.94312 11.1547C6.39115 11.1547 5.94312 10.7078 5.94312 10.1576C5.94335 6.39532 9.0133 3.33347 12.7888 3.33337ZM21.3591 4.75623C24.3348 4.75625 26.7545 7.16923 26.7546 10.1342C26.7546 13.1006 24.3349 15.513 21.3591 15.5131C20.8072 15.5131 20.3591 15.0662 20.3591 14.516C20.3593 13.9659 20.8073 13.5199 21.3591 13.5199C23.2323 13.5199 24.7546 12.0001 24.7546 10.1342C24.7545 8.26835 23.2322 6.74941 21.3591 6.74939C20.8072 6.74939 20.3591 6.30254 20.3591 5.75232C20.3593 5.20224 20.8073 4.75623 21.3591 4.75623Z" fill="currentColor"/>
</svg>
