<svg width="32" height="32" viewBox="0 0 32 32" fill="none" xmlns="http://www.w3.org/2000/svg">
<path d="M14.08 20.3707H11.7471L13.2063 11.6584H15.5392L14.08 20.3707Z" fill="#00579F"/>
<path d="M22.5379 11.8713C22.0777 11.695 21.3479 11.5004 20.4454 11.5004C18.1415 11.5004 16.5191 12.6866 16.5091 14.3827C16.49 15.634 17.6708 16.329 18.5538 16.7463C19.4564 17.1726 19.7633 17.4509 19.7633 17.8309C19.7541 18.4146 19.0339 18.6836 18.3621 18.6836C17.4307 18.6836 16.9317 18.5449 16.1732 18.2202L15.866 18.081L15.5396 20.0367C16.0868 20.2774 17.0948 20.491 18.1415 20.5004C20.5895 20.5004 22.1831 19.3324 22.202 17.5251C22.2113 16.5333 21.5878 15.7733 20.2437 15.1524C19.4277 14.7537 18.928 14.4849 18.928 14.0771C18.9376 13.7063 19.3506 13.3265 20.2718 13.3265C21.0302 13.3079 21.5875 13.4839 22.0096 13.6601L22.2206 13.7526L22.5379 11.8713Z" fill="#00579F"/>
<path d="M25.6381 17.2842C25.8303 16.7837 26.5696 14.8467 26.5696 14.8467C26.5599 14.8652 26.7613 14.3369 26.8765 14.0125L27.0396 14.7632C27.0396 14.7632 27.4814 16.8486 27.5773 17.2842C27.2127 17.2842 26.0989 17.2842 25.6381 17.2842ZM28.5179 11.6584H26.7133C26.1569 11.6584 25.734 11.8159 25.494 12.3813L22.0286 20.3706H24.4766C24.4766 20.3706 24.8796 19.2953 24.9662 19.0637C25.2347 19.0637 27.6161 19.0637 27.9615 19.0637C28.0285 19.3695 28.2399 20.3706 28.2399 20.3706H30.4001L28.5179 11.6584Z" fill="#00579F"/>
<path d="M9.79809 11.6584L7.51326 17.5993L7.2636 16.3945C6.84123 15.0042 5.51643 13.4937 4.03809 12.7426L6.13086 20.3614H8.59794L12.265 11.6584H9.79809Z" fill="#00579F"/>
<path d="M5.39207 11.6584H1.6385L1.6001 11.8345C4.52816 12.5575 6.4673 14.3002 7.26398 16.3948L6.44804 12.3908C6.31367 11.8344 5.90084 11.6768 5.39207 11.6584Z" fill="#FAA61A"/>
</svg>
