<svg width="32" height="32" viewBox="0 0 32 32" fill="none" xmlns="http://www.w3.org/2000/svg">
<path fill-rule="evenodd" clip-rule="evenodd" d="M17.3456 18.3466C17.3456 19.102 16.7402 19.72 16.0003 19.72C15.2603 19.72 14.6549 19.102 14.6549 18.3466V10.7933C14.6549 10.038 15.2603 9.41999 16.0003 9.41999C16.7402 9.41999 17.3456 10.038 17.3456 10.7933V18.3466ZM16.0003 24.5266C15.2603 24.5266 14.6549 23.9086 14.6549 23.1533C14.6549 22.398 15.2603 21.78 16.0003 21.78C16.7402 21.78 17.3456 22.398 17.3456 23.1533C17.3456 23.9086 16.7402 24.5266 16.0003 24.5266ZM31.4511 24.0254L18.8185 4.22192C17.4933 2.14819 14.5067 2.14819 13.1815 4.22192L0.548854 24.0254C-0.904106 26.312 0.69684 29.3333 3.36733 29.3333H28.6327C31.3032 29.3333 32.9041 26.312 31.4511 24.0254V24.0254Z" fill="currentColor"/>
</svg>
