<svg viewBox="0 0 121.13 31.88" fill="none" xmlns="http://www.w3.org/2000/svg">
<path d="M55.601 23.8794C54.5526 23.8794 53.6336 23.6501 52.8445 23.1916C52.0548 22.7332 51.446 22.0774 51.0171 21.2237C50.5882 20.3702 50.374 19.372 50.374 18.2292C50.374 17.0864 50.5987 16.1764 51.0478 15.3301C51.4969 14.4835 52.1198 13.8206 52.916 13.3407C53.7123 12.8611 54.6005 12.6212 55.5804 12.6212C56.7102 12.6212 57.6631 12.9037 58.4391 13.4678C59.2149 14.0322 59.7867 14.794 60.1541 15.7534C60.5059 16.6715 60.6455 17.6996 60.5734 18.8368C60.5678 18.9235 60.4988 18.9909 60.4152 18.9909H53.5242C53.431 18.9909 53.3586 19.0739 53.3663 19.1703C53.4074 19.67 53.5193 20.0933 53.702 20.4405C53.9062 20.8287 54.1645 21.1109 54.4777 21.2871C54.7907 21.4636 55.1584 21.5516 55.5804 21.5516C56.1793 21.5516 56.6592 21.3928 57.02 21.0754C57.351 20.7839 57.6339 20.3886 57.8673 19.8888C57.903 19.8124 57.9888 19.7763 58.0656 19.8062L60.4425 20.7277C60.5298 20.7615 60.5709 20.8663 60.5298 20.9533C60.307 21.4276 60.0186 21.8708 59.664 22.2823C59.269 22.741 58.735 23.1217 58.0612 23.425C57.3874 23.7284 56.5672 23.88 55.601 23.88V23.8794ZM57.4437 16.8533C57.5403 16.8533 57.6143 16.7638 57.6 16.6646C57.549 16.3097 57.4508 16.0055 57.3057 15.7531C57.1353 15.4569 56.9041 15.2275 56.6114 15.0653C56.3186 14.9034 55.9748 14.8219 55.5801 14.8219C55.0083 14.8219 54.5352 14.9985 54.1611 15.3509C53.8254 15.667 53.6019 16.1021 53.4907 16.6559C53.4702 16.7576 53.5454 16.8533 53.6458 16.8533H57.443H57.4437Z" fill="#19110B"/>
<path d="M36.4993 23.7115V20.5641C36.4993 20.5212 36.5152 20.4801 36.5438 20.4491L44.5871 11.7042C44.6857 11.5973 44.6114 11.4214 44.4678 11.4214H36.7905C36.7001 11.4214 36.6268 11.3462 36.6268 11.2536V8.7747C36.6268 8.68208 36.7001 8.60687 36.7905 8.60687H48.4528C48.5432 8.60687 48.6166 8.68208 48.6166 8.7747V11.8127C48.6166 11.8556 48.6004 11.8969 48.5718 11.928L40.4657 20.7163C40.3669 20.8233 40.4411 20.9995 40.5847 20.9995H48.8149C48.9053 20.9995 48.9787 21.0747 48.9787 21.1673V23.7118C48.9787 23.8044 48.9053 23.8796 48.8149 23.8796H36.6628C36.5724 23.8796 36.499 23.8044 36.499 23.7118L36.4993 23.7115Z" fill="#19110B"/>
<path d="M62.0596 23.7255V13.202C62.0596 13.1172 62.1286 13.0482 62.2134 13.0482H64.982C65.0668 13.0482 65.1358 13.1172 65.1358 13.202V14.8896C65.1358 15.0472 65.344 15.1025 65.4227 14.9661C65.6996 14.4859 66.0514 14.0452 66.4788 13.644C67.0708 13.0883 67.9373 12.8101 69.0782 12.8101C69.2274 12.8101 69.3595 12.8135 69.4745 12.8204C69.5559 12.8253 69.6196 12.8922 69.6196 12.9739V15.9075C69.6196 15.9995 69.5395 16.0707 69.4481 16.0601C69.0661 16.0163 68.7118 15.9942 68.3849 15.9942C67.2725 15.9942 66.4679 16.2578 65.9697 16.7849C65.4715 17.3123 65.2222 18.2329 65.2222 19.5469V23.7255C65.2222 23.8104 65.1532 23.8794 65.0684 23.8794H62.2134C62.1286 23.8794 62.0596 23.8104 62.0596 23.7255Z" fill="#19110B"/>
<path d="M76.7394 23.8793C75.6563 23.8793 74.6739 23.63 73.7934 23.1318C72.9123 22.6336 72.2264 21.9477 71.7356 21.0741C71.2446 20.2004 70.999 19.2149 70.999 18.1172C70.999 16.9619 71.2408 15.9509 71.7247 15.0844C72.2083 14.2179 72.8908 13.5463 73.7719 13.0699C74.6527 12.5934 75.642 12.355 76.7397 12.355C77.8374 12.355 78.8444 12.5934 79.7184 13.0699C80.592 13.5463 81.2742 14.2179 81.7656 15.0844C82.2563 15.9509 82.5021 16.9619 82.5021 18.1172C82.5021 19.2724 82.2563 20.2871 81.7656 21.1608C81.2745 22.0347 80.592 22.7064 79.7184 23.1753C78.8444 23.6443 77.8517 23.8793 76.7397 23.8793H76.7394ZM76.7394 21.388C77.2301 21.388 77.6562 21.2727 78.0174 21.0414C78.3782 20.8105 78.6598 20.4494 78.8621 19.9583C79.0641 19.4676 79.1655 18.868 79.1655 18.1604C79.1655 17.4527 79.0641 16.828 78.8621 16.3298C78.6598 15.8316 78.3748 15.4599 78.0065 15.2143C77.6382 14.9688 77.2158 14.8461 76.7394 14.8461C76.263 14.8461 75.8403 14.9688 75.4723 15.2143C75.104 15.4602 74.8187 15.8316 74.6167 16.3298C74.4143 16.828 74.3133 17.4384 74.3133 18.1604C74.3133 18.8823 74.4143 19.4676 74.6167 19.9583C74.8187 20.4494 75.1003 20.8105 75.4614 21.0414C75.8222 21.2727 76.2483 21.388 76.7394 21.388Z" fill="#19110B"/>
<path d="M83.9551 23.7118V8.86143C83.9551 8.76881 84.0225 8.69391 84.1058 8.69391H89.1463C90.4734 8.69391 91.6864 8.99414 92.786 9.59428C93.8853 10.1944 94.7601 11.0584 95.4109 12.1866C96.0614 13.3148 96.3868 14.6453 96.3868 16.1781C96.3868 17.711 96.0614 19.1251 95.4109 20.289C94.7601 21.4533 93.8853 22.3427 92.786 22.9572C91.6864 23.5719 90.4796 23.8793 89.1659 23.8793H84.1058C84.0225 23.8793 83.9551 23.8044 83.9551 23.7118ZM89.0095 21.0806C89.959 21.0806 90.7431 20.8963 91.3613 20.5274C91.9792 20.1585 92.4444 19.6162 92.7568 18.9004C93.0691 18.1846 93.2251 17.2989 93.2251 16.2431C93.2251 15.2887 93.0691 14.457 92.7568 13.7484C92.4444 13.0401 91.9826 12.4868 91.3712 12.0887C90.7596 11.6912 90.005 11.492 89.1074 11.492H87.1504C87.0671 11.492 86.9996 11.5669 86.9996 11.6595V20.9128C86.9996 21.0054 87.0671 21.0803 87.1504 21.0803H89.0098L89.0095 21.0806Z" fill="#19110B"/>
<path d="M113.473 23.7709L109.464 13.2769C109.422 13.1666 109.504 13.0482 109.622 13.0482H112.549C112.621 13.0482 112.685 13.0942 112.708 13.1625L114.143 17.3806C114.65 18.8908 115.016 20.0009 115.242 20.7105C115.292 20.8668 115.512 20.8671 115.563 20.7114C115.805 19.963 116.162 18.8529 116.634 17.3806L118.004 13.1647C118.027 13.0954 118.091 13.0482 118.164 13.0482H121.008C121.125 13.0482 121.206 13.1641 121.166 13.2741L117.368 23.7681C117.343 23.8349 117.28 23.8793 117.209 23.8793H113.631C113.561 23.8793 113.499 23.8361 113.473 23.7709H113.473Z" fill="#19110B"/>
<path d="M103.023 23.8794C101.975 23.8794 101.056 23.6501 100.266 23.1916C99.4767 22.7332 98.8678 22.0774 98.4389 21.2237C98.01 20.3702 97.7959 19.372 97.7959 18.2292C97.7959 17.0864 98.0206 16.1764 98.4697 15.3301C98.9188 14.4835 99.5416 13.8206 100.338 13.3407C101.134 12.8611 102.022 12.6212 103.002 12.6212C104.132 12.6212 105.085 12.9037 105.861 13.4678C106.637 14.0322 107.209 14.794 107.576 15.7534C107.928 16.6715 108.067 17.6996 107.995 18.8368C107.99 18.9235 107.921 18.9909 107.837 18.9909H100.946C100.853 18.9909 100.78 19.0739 100.788 19.1703C100.829 19.67 100.941 20.0933 101.124 20.4405C101.328 20.8287 101.586 21.1109 101.9 21.2871C102.213 21.4636 102.58 21.5516 103.002 21.5516C103.601 21.5516 104.081 21.3928 104.442 21.0754C104.773 20.7839 105.056 20.3886 105.289 19.8888C105.325 19.8124 105.411 19.7763 105.487 19.8062L107.864 20.7277C107.952 20.7615 107.993 20.8663 107.952 20.9533C107.729 21.4276 107.44 21.8708 107.086 22.2823C106.691 22.741 106.157 23.1217 105.483 23.425C104.809 23.7284 103.989 23.88 103.023 23.88V23.8794ZM104.866 16.8533C104.962 16.8533 105.036 16.7638 105.022 16.6646C104.971 16.3097 104.873 16.0055 104.728 15.7531C104.557 15.4569 104.326 15.2275 104.033 15.0653C103.74 14.9034 103.397 14.8219 103.002 14.8219C102.43 14.8219 101.957 14.9985 101.583 15.3509C101.247 15.667 101.024 16.1021 100.913 16.6559C100.892 16.7576 100.967 16.8533 101.068 16.8533H104.865H104.866Z" fill="#19110B"/>
<path d="M16 0C7.1635 0 0 7.1635 0 16C0 24.8365 7.1635 32 16 32C24.8365 32 32 24.8365 32 16C32 7.1635 24.8365 0 16 0ZM13.7949 10.0685C13.7949 10.1543 13.7293 10.2239 13.6488 10.2239H13.1901C12.8305 10.2239 12.5688 10.3019 12.4057 10.4582C12.2422 10.6146 12.1604 10.9011 12.1604 11.3179V13.8366C12.1604 13.9177 12.1577 14.0016 12.1524 14.0883C12.1468 14.175 12.1387 14.2592 12.1278 14.34C12.0731 14.7338 11.9398 15.0552 11.7272 15.3041C11.5146 15.5534 11.2778 15.7414 11.0161 15.8685C10.8797 15.935 10.733 15.9969 10.5757 16.0538C10.4446 16.1013 10.4427 16.2981 10.5732 16.3468C10.7563 16.4155 10.9229 16.4904 11.0733 16.5719C11.3403 16.7167 11.5771 16.9221 11.7844 17.1885C11.9904 17.4539 12.1101 17.7992 12.1437 18.2247C12.1437 18.2284 12.1446 18.2324 12.1452 18.2362C12.1552 18.2924 12.1604 18.3515 12.1604 18.413V21.0793C12.1604 21.4961 12.2422 21.7854 12.4057 21.9477C12.5691 22.1096 12.8305 22.1907 13.1901 22.1907H13.6488C13.7296 22.1907 13.7949 22.2603 13.7949 22.3461V23.9116C13.7949 23.9974 13.7293 24.067 13.6488 24.067H12.4218C11.8223 24.067 11.3431 23.9772 10.9835 23.7978C10.6239 23.6182 10.3678 23.3431 10.2152 22.9727C10.0626 22.6019 9.98644 22.1155 9.98644 21.5135V18.578C9.98644 18.5386 9.9824 18.5028 9.97432 18.4714C9.97183 18.4612 9.96966 18.4509 9.96904 18.4404C9.94604 18.101 9.88108 17.8489 9.77386 17.6833C9.66477 17.5154 9.51217 17.3939 9.31606 17.3184C9.15165 17.2553 8.95305 17.2186 8.72027 17.2084C8.64226 17.205 8.58072 17.1363 8.58072 17.0533V15.3781C8.58072 15.2945 8.64319 15.2255 8.72213 15.223C8.96238 15.2152 9.16066 15.1873 9.31637 15.1385C9.5016 15.0807 9.65141 14.9766 9.76578 14.8258C9.87891 14.6769 9.94666 14.4544 9.96935 14.1582C9.96997 14.1517 9.9709 14.1452 9.97215 14.139C9.98147 14.0961 9.98644 14.0529 9.98644 14.0094V10.9002C9.98644 10.2982 10.0626 9.81178 10.2152 9.441C10.3678 9.07053 10.6239 8.79548 10.9835 8.61584C11.3431 8.43651 11.8226 8.34669 12.4218 8.34669H13.6488C13.7296 8.34669 13.7949 8.41631 13.7949 8.50209V10.0676V10.0685ZM16.9728 18.3906C16.9728 18.8798 16.5995 19.2764 16.1392 19.2764H16.0566C15.5963 19.2764 15.223 18.8798 15.223 18.3906C15.223 17.9014 15.5963 17.5049 16.0566 17.5049H16.1392C16.5995 17.5049 16.9728 17.9014 16.9728 18.3906ZM16.9728 14.529C16.9728 15.0182 16.5995 15.4148 16.1392 15.4148H16.0566C15.5963 15.4148 15.223 15.0182 15.223 14.529C15.223 14.0398 15.5963 13.6432 16.0566 13.6432H16.1392C16.5995 13.6432 16.9728 14.0398 16.9728 14.529ZM23.6151 17.0368C23.6151 17.1201 23.5529 17.1885 23.4746 17.191C23.2337 17.1987 23.0354 17.227 22.8794 17.2755C22.6939 17.3336 22.5444 17.4377 22.43 17.5882C22.3169 17.737 22.2488 17.9596 22.2265 18.2554C22.2258 18.262 22.2249 18.2688 22.2237 18.275C22.214 18.3182 22.2097 18.3614 22.2097 18.4043V21.5135C22.2097 22.1155 22.1332 22.6019 21.9809 22.9727C21.8283 23.3431 21.5722 23.6182 21.2126 23.7978C20.8531 23.9772 20.3735 24.067 19.7743 24.067H18.5466C18.4665 24.067 18.4012 23.9977 18.4012 23.9125V22.3455C18.4012 22.2603 18.4662 22.191 18.5466 22.191H19.006C19.3656 22.191 19.6273 22.113 19.7904 21.9567C19.9539 21.8004 20.0357 21.5138 20.0357 21.097V18.5784C20.0357 18.4975 20.0382 18.4133 20.0437 18.3266C20.049 18.2399 20.0574 18.156 20.0683 18.0749C20.1227 17.6814 20.2563 17.36 20.4689 17.1108C20.6815 16.8618 20.9183 16.6738 21.18 16.5464C21.3171 16.4796 21.4644 16.4177 21.6226 16.3605C21.7531 16.3133 21.755 16.1175 21.6251 16.069C21.4411 16.0003 21.2739 15.9248 21.1231 15.8431C20.8559 15.6985 20.619 15.4931 20.412 15.2264C20.206 14.9616 20.0863 14.6163 20.0531 14.1909C20.0528 14.1865 20.0521 14.1822 20.0515 14.1781C20.0413 14.1222 20.0363 14.0634 20.0363 14.0022V11.3359C20.0363 10.9191 19.9545 10.6298 19.7911 10.4676C19.6276 10.3056 19.3662 10.2245 19.0066 10.2245H18.5473C18.4671 10.2245 18.4018 10.1552 18.4018 10.07V8.50302C18.4018 8.41786 18.4668 8.34856 18.5473 8.34856H19.7749C20.3741 8.34856 20.8537 8.43838 21.2133 8.6177C21.5729 8.79734 21.8286 9.0724 21.9815 9.44286C22.1341 9.81364 22.2103 10.3 22.2103 10.902V13.8375C22.2103 13.8773 22.2143 13.9127 22.2221 13.9438C22.2249 13.954 22.2268 13.9646 22.2277 13.9755C22.2504 14.3146 22.3153 14.5669 22.4229 14.732C22.5317 14.9001 22.6843 15.0216 22.8807 15.0968C23.0451 15.1602 23.244 15.1966 23.4774 15.2069C23.5551 15.2103 23.6163 15.2783 23.6163 15.361V17.0377L23.6151 17.0368Z" fill="#19110B"/>
</svg>
