<?xml version="1.0" encoding="UTF-8"?>
<svg id="zd-mark-black-Layer_2" data-name="Layer 2" xmlns="http://www.w3.org/2000/svg" viewBox="0 0 1029.61 1029.61">
  <defs>
    <style>
      .zd-mark-black-cls-1 {
        fill: #19110b;
      }
    </style>
  </defs>
  <g id="zd-mark-black-Layer_1" data-name="Layer 1">
    <circle cx="514.81" cy="514.81" r="514.81" fill="#fff"/>
    <path class="zd-mark-black-cls-1" d="M514.81,0C230.49,0,0,230.49,0,514.81s230.49,514.81,514.81,514.81,514.81-230.49,514.81-514.81S799.13,0,514.81,0ZM443.86,323.96c0,2.76-2.11,5-4.7,5h-14.76c-11.57,0-19.99,2.51-25.24,7.54-5.26,5.03-7.89,14.25-7.89,27.66v81.04c0,2.61-.09,5.31-.26,8.1-.18,2.79-.44,5.5-.79,8.1-1.76,12.67-6.05,23.01-12.89,31.02-6.84,8.02-14.46,14.07-22.88,18.16-4.39,2.14-9.11,4.13-14.17,5.96-4.22,1.53-4.28,7.86-.08,9.43,5.89,2.21,11.25,4.62,16.09,7.24,8.59,4.66,16.21,11.27,22.88,19.84,6.63,8.54,10.48,19.65,11.56,33.34,0,.12.03.25.05.37.32,1.81.49,3.71.49,5.69v85.79c0,13.41,2.63,22.72,7.89,27.94,5.26,5.21,13.67,7.82,25.24,7.82h14.76c2.6,0,4.7,2.24,4.7,5v50.37c0,2.76-2.11,5-4.7,5h-39.48c-19.29,0-34.71-2.89-46.28-8.66-11.57-5.78-19.81-14.63-24.72-26.55-4.91-11.93-7.36-27.58-7.36-46.95v-94.45c0-1.27-.13-2.42-.39-3.43-.08-.33-.15-.66-.17-1-.74-10.92-2.83-19.03-6.28-24.36-3.51-5.4-8.42-9.31-14.73-11.74-5.29-2.03-11.68-3.21-19.17-3.54-2.51-.11-4.49-2.32-4.49-4.99v-53.9c0-2.69,2.01-4.91,4.55-4.99,7.73-.25,14.11-1.15,19.12-2.72,5.96-1.86,10.78-5.21,14.46-10.06,3.64-4.79,5.82-11.95,6.55-21.48.02-.21.05-.42.09-.62.3-1.38.46-2.77.46-4.17v-100.04c0-19.37,2.45-35.02,7.36-46.95,4.91-11.92,13.15-20.77,24.72-26.55,11.57-5.77,27-8.66,46.28-8.66h39.48c2.6,0,4.7,2.24,4.7,5v50.37ZM546.11,591.73c0,15.74-12.01,28.5-26.82,28.5h-2.66c-14.81,0-26.82-12.76-26.82-28.5h0c0-15.74,12.01-28.5,26.82-28.5h2.66c14.81,0,26.82,12.76,26.82,28.5h0ZM546.11,467.48c0,15.74-12.01,28.5-26.82,28.5h-2.66c-14.81,0-26.82-12.76-26.82-28.5h0c0-15.74,12.01-28.5,26.82-28.5h2.66c14.81,0,26.82,12.76,26.82,28.5h0ZM759.83,548.17c0,2.68-2,4.88-4.52,4.96-7.75.25-14.13,1.16-19.15,2.72-5.97,1.87-10.78,5.22-14.46,10.06-3.64,4.79-5.83,11.95-6.55,21.47-.02.21-.05.43-.09.63-.31,1.39-.45,2.78-.45,4.16v100.04c0,19.37-2.46,35.02-7.36,46.95-4.91,11.92-13.15,20.77-24.72,26.55-11.57,5.77-27,8.66-46.28,8.66h-39.5c-2.58,0-4.68-2.23-4.68-4.97v-50.42c0-2.74,2.09-4.97,4.68-4.97h14.78c11.57,0,19.99-2.51,25.24-7.54,5.26-5.03,7.89-14.25,7.89-27.66v-81.04c0-2.6.08-5.31.26-8.1.17-2.79.44-5.49.79-8.1,1.75-12.66,6.05-23,12.89-31.02,6.84-8.01,14.46-14.06,22.88-18.16,4.41-2.15,9.15-4.14,14.24-5.98,4.2-1.52,4.26-7.82.08-9.38-5.92-2.21-11.3-4.64-16.15-7.27-8.6-4.65-16.22-11.26-22.88-19.84-6.63-8.52-10.48-19.63-11.55-33.32-.01-.14-.03-.28-.05-.41-.33-1.8-.49-3.69-.49-5.66v-85.79c0-13.41-2.63-22.72-7.89-27.94-5.26-5.21-13.67-7.82-25.24-7.82h-14.78c-2.58,0-4.68-2.23-4.68-4.97v-50.42c0-2.74,2.09-4.97,4.68-4.97h39.5c19.28,0,34.71,2.89,46.28,8.66,11.57,5.78,19.8,14.63,24.72,26.55,4.91,11.93,7.36,27.58,7.36,46.95v94.45c0,1.28.13,2.42.38,3.42.09.33.15.67.18,1.02.73,10.91,2.82,19.03,6.28,24.34,3.5,5.41,8.41,9.32,14.73,11.74,5.29,2.04,11.69,3.21,19.2,3.54,2.5.11,4.47,2.3,4.47,4.96v53.95Z"/>
  </g>
</svg>