<?xml version="1.0" encoding="UTF-8"?>
<svg id="zd-lockup-offwhite-Layer_2" data-name="Layer 2" xmlns="http://www.w3.org/2000/svg" viewBox="0 0 3898.96 1029.61">
  <defs>
    <style>
      .zd-lockup-offwhite-cls-1 {
        fill: #faf7f4;
      }
    </style>
  </defs>
  <g id="zd-lockup-offwhite-Layer_1" data-name="Layer 1">
    <path class="zd-lockup-offwhite-cls-1" d="M1788.99,768.33c-33.73,0-63.3-7.38-88.69-22.13-25.41-14.75-45-35.85-58.8-63.32-13.8-27.46-20.69-59.58-20.69-96.35s7.23-66.05,21.68-93.28c14.45-27.24,34.49-48.57,60.11-64.01,25.62-15.43,54.2-23.15,85.73-23.15,36.35,0,67.01,9.09,91.98,27.24,24.96,18.16,43.36,42.67,55.18,73.54,11.32,29.54,15.81,62.62,13.49,99.21-.18,2.79-2.4,4.96-5.09,4.96h-221.72c-3,0-5.33,2.67-5.08,5.77,1.32,16.08,4.92,29.7,10.8,40.87,6.57,12.49,14.88,21.57,24.96,27.24,10.07,5.68,21.9,8.51,35.48,8.51,19.27,0,34.71-5.11,46.32-15.32,10.65-9.38,19.75-22.1,27.26-38.18,1.15-2.46,3.91-3.62,6.38-2.66l76.48,29.65c2.81,1.09,4.13,4.46,2.81,7.26-7.17,15.26-16.45,29.52-27.86,42.76-12.71,14.76-29.89,27.01-51.57,36.77-21.68,9.76-48.07,14.64-79.16,14.64ZM1848.28,542.26c3.11,0,5.49-2.88,5.03-6.07-1.64-11.42-4.8-21.21-9.47-29.33-5.48-9.53-12.92-16.91-22.34-22.13-9.42-5.21-20.48-7.83-33.18-7.83-18.4,0-33.62,5.68-45.66,17.02-10.8,10.17-17.99,24.17-21.57,41.99-.66,3.27,1.76,6.35,4.99,6.35h122.18Z"/>
    <path class="zd-lockup-offwhite-cls-1" d="M1174.34,762.93v-101.27c0-1.38.51-2.7,1.43-3.7l258.8-281.37c3.17-3.44.78-9.1-3.84-9.1h-247.02c-2.91,0-5.27-2.42-5.27-5.4v-79.76c0-2.98,2.36-5.4,5.27-5.4h375.24c2.91,0,5.27,2.42,5.27,5.4v97.75c0,1.38-.52,2.71-1.44,3.71l-260.82,282.77c-3.18,3.44-.79,9.11,3.83,9.11h264.81c2.91,0,5.27,2.42,5.27,5.4v81.87c0,2.98-2.36,5.4-5.27,5.4h-391c-2.91,0-5.27-2.42-5.27-5.4Z"/>
    <path class="zd-lockup-offwhite-cls-1" d="M1996.78,763.38v-338.6c0-2.73,2.22-4.95,4.95-4.95h89.08c2.73,0,4.95,2.22,4.95,4.95v54.3h0c0,5.07,6.7,6.85,9.23,2.46,8.91-15.45,20.23-29.63,33.98-42.54,19.05-17.88,46.93-26.83,83.64-26.83,4.8,0,9.05.11,12.75.33,2.62.16,4.67,2.31,4.67,4.94v94.39c0,2.96-2.58,5.25-5.52,4.91-12.29-1.41-23.69-2.12-34.21-2.12-35.79,0-61.68,8.48-77.71,25.44-16.03,16.97-24.05,46.59-24.05,88.87v134.45c0,2.73-2.22,4.95-4.95,4.95h-91.86c-2.73,0-4.95-2.22-4.95-4.95Z"/>
    <path class="zd-lockup-offwhite-cls-1" d="M2469.11,768.33c-34.85,0-66.46-8.02-94.79-24.05-28.35-16.03-50.42-38.1-66.21-66.21-15.8-28.11-23.7-59.82-23.7-95.14,0-37.17,7.78-69.7,23.35-97.58,15.56-27.88,37.52-49.49,65.87-64.82,28.34-15.33,60.17-23,95.49-23s67.72,7.67,95.84,23c28.11,15.33,50.06,36.94,65.87,64.82,15.79,27.88,23.7,60.41,23.7,97.58s-7.91,69.82-23.7,97.93c-15.8,28.12-37.76,49.73-65.87,64.82-28.12,15.09-60.06,22.65-95.84,22.65ZM2469.11,688.17c15.79,0,29.5-3.71,41.12-11.15,11.61-7.43,20.67-19.05,27.18-34.85,6.5-15.79,9.76-35.08,9.76-57.85s-3.26-42.87-9.76-58.9c-6.51-16.03-15.68-27.99-27.53-35.89-11.85-7.9-25.44-11.85-40.77-11.85s-28.93,3.95-40.77,11.85c-11.85,7.91-21.03,19.86-27.53,35.89-6.51,16.03-9.76,35.67-9.76,58.9s3.25,42.06,9.76,57.85c6.5,15.8,15.56,27.42,27.18,34.85,11.61,7.44,25.32,11.15,41.12,11.15Z"/>
    <path class="zd-lockup-offwhite-cls-1" d="M2701.29,762.94v-477.82c0-2.98,2.17-5.39,4.85-5.39h162.18c42.7,0,81.73,9.66,117.11,28.97,35.37,19.31,63.52,47.11,84.46,83.41,20.93,36.3,31.4,79.11,31.4,128.43s-10.47,94.82-31.4,132.27c-20.94,37.46-49.09,66.08-84.46,85.85-35.38,19.78-74.21,29.67-116.48,29.67h-162.81c-2.68,0-4.85-2.41-4.85-5.39ZM2863.92,678.28c30.55,0,55.78-5.93,75.67-17.8,19.88-11.87,34.85-29.32,44.9-52.35,10.05-23.03,15.07-51.53,15.07-85.5,0-30.71-5.02-57.47-15.07-80.27-10.05-22.79-24.91-40.59-44.58-53.4-19.68-12.79-43.96-19.2-72.84-19.2h-62.97c-2.68,0-4.85,2.41-4.85,5.39v297.73c0,2.98,2.17,5.39,4.85,5.39h59.83Z"/>
    <path class="zd-lockup-offwhite-cls-1" d="M3651.1,764.84l-128.98-337.65c-1.36-3.55,1.27-7.36,5.07-7.36h94.18c2.32,0,4.39,1.48,5.13,3.68l46.15,135.72c16.32,48.59,28.1,84.31,35.37,107.14,1.6,5.03,8.7,5.04,10.32.03,7.8-24.08,19.29-59.8,34.46-107.17l44.09-135.65c.73-2.23,2.81-3.75,5.16-3.75h91.49c3.76,0,6.38,3.73,5.1,7.27l-122.23,337.65c-.78,2.15-2.82,3.58-5.1,3.58h-115.13c-2.25,0-4.26-1.39-5.07-3.49Z"/>
    <path class="zd-lockup-offwhite-cls-1" d="M3314.82,768.33c-33.73,0-63.3-7.38-88.69-22.13-25.41-14.75-45-35.85-58.8-63.32-13.8-27.46-20.69-59.58-20.69-96.35s7.23-66.05,21.68-93.28c14.45-27.24,34.49-48.57,60.11-64.01,25.62-15.43,54.2-23.15,85.73-23.15,36.35,0,67.01,9.09,91.98,27.24,24.96,18.16,43.36,42.67,55.18,73.54,11.32,29.54,15.81,62.62,13.49,99.21-.18,2.79-2.4,4.96-5.09,4.96h-221.72c-3,0-5.33,2.67-5.08,5.77,1.32,16.08,4.92,29.7,10.8,40.87,6.57,12.49,14.88,21.57,24.96,27.24,10.07,5.68,21.9,8.51,35.48,8.51,19.27,0,34.71-5.11,46.32-15.32,10.65-9.38,19.75-22.1,27.26-38.18,1.15-2.46,3.91-3.62,6.38-2.66l76.48,29.65c2.81,1.09,4.13,4.46,2.81,7.26-7.17,15.26-16.45,29.52-27.86,42.76-12.71,14.76-29.89,27.01-51.57,36.77-21.68,9.76-48.07,14.64-79.16,14.64ZM3374.11,542.26c3.11,0,5.49-2.88,5.03-6.07-1.64-11.42-4.8-21.21-9.47-29.33-5.48-9.53-12.92-16.91-22.34-22.13-9.42-5.21-20.48-7.83-33.18-7.83-18.4,0-33.62,5.68-45.66,17.02-10.8,10.17-17.99,24.17-21.57,41.99-.66,3.27,1.76,6.35,4.99,6.35h122.18Z"/>
    <circle cx="514.81" cy="514.81" r="514.81" fill="#19110b"/><path class="zd-lockup-offwhite-cls-1" d="M514.81,0C230.49,0,0,230.49,0,514.81s230.49,514.81,514.81,514.81,514.81-230.49,514.81-514.81S799.13,0,514.81,0ZM443.86,323.96c0,2.76-2.11,5-4.7,5h-14.76c-11.57,0-19.99,2.51-25.24,7.54-5.26,5.03-7.89,14.25-7.89,27.66v81.04c0,2.61-.09,5.31-.26,8.1-.18,2.79-.44,5.5-.79,8.1-1.76,12.67-6.05,23.01-12.89,31.02-6.84,8.02-14.46,14.07-22.88,18.16-4.39,2.14-9.11,4.13-14.17,5.96-4.22,1.53-4.28,7.86-.08,9.43,5.89,2.21,11.25,4.62,16.09,7.24,8.59,4.66,16.21,11.27,22.88,19.84,6.63,8.54,10.48,19.65,11.56,33.34,0,.12.03.25.05.37.32,1.81.49,3.71.49,5.69v85.79c0,13.41,2.63,22.72,7.89,27.94,5.26,5.21,13.67,7.82,25.24,7.82h14.76c2.6,0,4.7,2.24,4.7,5v50.37c0,2.76-2.11,5-4.7,5h-39.48c-19.29,0-34.71-2.89-46.28-8.66-11.57-5.78-19.81-14.63-24.72-26.55-4.91-11.93-7.36-27.58-7.36-46.95v-94.45c0-1.27-.13-2.42-.39-3.43-.08-.33-.15-.66-.17-1-.74-10.92-2.83-19.03-6.28-24.36-3.51-5.4-8.42-9.31-14.73-11.74-5.29-2.03-11.68-3.21-19.17-3.54-2.51-.11-4.49-2.32-4.49-4.99v-53.9c0-2.69,2.01-4.91,4.55-4.99,7.73-.25,14.11-1.15,19.12-2.72,5.96-1.86,10.78-5.21,14.46-10.06,3.64-4.79,5.82-11.95,6.55-21.48.02-.21.05-.42.09-.62.3-1.38.46-2.77.46-4.17v-100.04c0-19.37,2.45-35.02,7.36-46.95,4.91-11.92,13.15-20.77,24.72-26.55,11.57-5.77,27-8.66,46.28-8.66h39.48c2.6,0,4.7,2.24,4.7,5v50.37ZM546.11,591.73c0,15.74-12.01,28.5-26.82,28.5h-2.66c-14.81,0-26.82-12.76-26.82-28.5h0c0-15.74,12.01-28.5,26.82-28.5h2.66c14.81,0,26.82,12.76,26.82,28.5h0ZM546.11,467.48c0,15.74-12.01,28.5-26.82,28.5h-2.66c-14.81,0-26.82-12.76-26.82-28.5h0c0-15.74,12.01-28.5,26.82-28.5h2.66c14.81,0,26.82,12.76,26.82,28.5h0ZM759.83,548.17c0,2.68-2,4.88-4.52,4.96-7.75.25-14.13,1.16-19.15,2.72-5.97,1.87-10.78,5.22-14.46,10.06-3.64,4.79-5.83,11.95-6.55,21.47-.02.21-.05.43-.09.63-.31,1.39-.45,2.78-.45,4.16v100.04c0,19.37-2.46,35.02-7.36,46.95-4.91,11.92-13.15,20.77-24.72,26.55-11.57,5.77-27,8.66-46.28,8.66h-39.5c-2.58,0-4.68-2.23-4.68-4.97v-50.42c0-2.74,2.09-4.97,4.68-4.97h14.78c11.57,0,19.99-2.51,25.24-7.54,5.26-5.03,7.89-14.25,7.89-27.66v-81.04c0-2.6.08-5.31.26-8.1.17-2.79.44-5.49.79-8.1,1.75-12.66,6.05-23,12.89-31.02,6.84-8.01,14.46-14.06,22.88-18.16,4.41-2.15,9.15-4.14,14.24-5.98,4.2-1.52,4.26-7.82.08-9.38-5.92-2.21-11.3-4.64-16.15-7.27-8.6-4.65-16.22-11.26-22.88-19.84-6.63-8.52-10.48-19.63-11.55-33.32-.01-.14-.03-.28-.05-.41-.33-1.8-.49-3.69-.49-5.66v-85.79c0-13.41-2.63-22.72-7.89-27.94-5.26-5.21-13.67-7.82-25.24-7.82h-14.78c-2.58,0-4.68-2.23-4.68-4.97v-50.42c0-2.74,2.09-4.97,4.68-4.97h39.5c19.28,0,34.71,2.89,46.28,8.66,11.57,5.78,19.8,14.63,24.72,26.55,4.91,11.93,7.36,27.58,7.36,46.95v94.45c0,1.28.13,2.42.38,3.42.09.33.15.67.18,1.02.73,10.91,2.82,19.03,6.28,24.34,3.5,5.41,8.41,9.32,14.73,11.74,5.29,2.04,11.69,3.21,19.2,3.54,2.5.11,4.47,2.3,4.47,4.96v53.95Z"/>
  </g>
</svg>