<svg width="32" height="32" viewBox="0 0 32 32" fill="none" xmlns="http://www.w3.org/2000/svg">
<path d="M21.5867 2.66663H10.4134C5.56008 2.66663 2.66675 5.55996 2.66675 10.4133V21.5733C2.66675 26.44 5.56008 29.3333 10.4134 29.3333H21.5734C26.4267 29.3333 29.3201 26.44 29.3201 21.5866V10.4133C29.3334 5.55996 26.4401 2.66663 21.5867 2.66663ZM23.5867 18.7333C23.5334 18.8533 23.4667 18.96 23.3734 19.0533L19.4401 22.9866C19.2401 23.1866 18.9867 23.28 18.7334 23.28C18.4801 23.28 18.2267 23.1866 18.0267 22.9866C17.6401 22.6 17.6401 21.96 18.0267 21.5733L20.2534 19.3466H9.33341C8.78675 19.3466 8.33341 18.8933 8.33341 18.3466C8.33341 17.8 8.78675 17.3466 9.33341 17.3466H22.6667C22.8001 17.3466 22.9201 17.3733 23.0534 17.4266C23.2934 17.5333 23.4934 17.72 23.6001 17.9733C23.6934 18.2133 23.6934 18.48 23.5867 18.7333ZM22.6667 14.6533H9.33341C9.20008 14.6533 9.08008 14.6266 8.94675 14.5733C8.70675 14.4666 8.50675 14.28 8.40008 14.0266C8.29342 13.7866 8.29342 13.5066 8.40008 13.2666C8.46675 13.1466 8.53341 13.04 8.62675 12.9466L12.5601 9.01329C12.9467 8.62663 13.5867 8.62663 13.9734 9.01329C14.3601 9.39996 14.3601 10.04 13.9734 10.4266L11.7467 12.6533H22.6667C23.2134 12.6533 23.6667 13.1066 23.6667 13.6533C23.6667 14.2 23.2134 14.6533 22.6667 14.6533Z" fill="currentColor"/>
</svg>
