<svg width="32" height="32" viewBox="0 0 32 32" fill="none" xmlns="http://www.w3.org/2000/svg">
<path d="M21.5867 2.66663H10.4134C5.56008 2.66663 2.66675 5.55996 2.66675 10.4133V21.5733C2.66675 26.44 5.56008 29.3333 10.4134 29.3333H21.5734C26.4267 29.3333 29.3201 26.44 29.3201 21.5866V10.4133C29.3334 5.55996 26.4401 2.66663 21.5867 2.66663ZM14.6534 22.6666C14.6534 22.8 14.6267 22.92 14.5734 23.0533C14.4667 23.2933 14.2801 23.4933 14.0267 23.6C13.9067 23.6533 13.7734 23.68 13.6401 23.68C13.5067 23.68 13.3867 23.6533 13.2534 23.6C13.1334 23.5466 13.0267 23.48 12.9334 23.3866L9.00008 19.4533C8.61341 19.0666 8.61341 18.4266 9.00008 18.04C9.38675 17.6533 10.0267 17.6533 10.4134 18.04L12.6401 20.2666V9.33329C12.6401 8.78663 13.0934 8.33329 13.6401 8.33329C14.1867 8.33329 14.6534 8.78663 14.6534 9.33329V22.6666ZM22.9867 13.9733C22.7867 14.1733 22.5334 14.2666 22.2801 14.2666C22.0267 14.2666 21.7734 14.1733 21.5734 13.9733L19.3467 11.7466V22.6666C19.3467 23.2133 18.8934 23.6666 18.3467 23.6666C17.8001 23.6666 17.3467 23.2133 17.3467 22.6666V9.33329C17.3467 9.19996 17.3734 9.07996 17.4267 8.94663C17.5334 8.70663 17.7201 8.50663 17.9734 8.39996C18.2134 8.29329 18.4934 8.29329 18.7334 8.39996C18.8534 8.45329 18.9601 8.51996 19.0534 8.61329L22.9867 12.5466C23.3734 12.9466 23.3734 13.5866 22.9867 13.9733Z" fill="currentColor"/>
</svg>
