<svg width="32" height="32" viewBox="0 0 32 32" fill="none" xmlns="http://www.w3.org/2000/svg">
<g clip-path="url(#clip0_864_29142)">
<path d="M14.2727 19.6083L17.8804 16.0007L14.2727 12.393L15.0126 11.653L19.3601 16.0007L15.0126 20.3484L14.2727 19.6083Z" fill="currentColor"/>
<path d="M18.6204 15.4768L18.6204 16.5246L5.00138 16.5246L5.00138 15.4768L18.6204 15.4768Z" fill="currentColor"/>
<path d="M5.38756 18.8882L6.39579 18.6131C7.56784 22.9345 11.5162 25.9531 16.0012 25.9531C21.4882 25.9531 25.9537 21.4876 25.9537 16.0006C25.9537 10.5137 21.4882 6.04817 16.0012 6.04817C11.5162 6.04817 7.56784 9.06672 6.39579 13.3882L5.38755 13.1131C6.68391 8.33338 11.0447 5.00061 16.0012 5.00061C22.0642 5.00061 27.0012 9.9376 27.0012 16.0006C27.0012 22.0636 22.0642 27.0006 16.0012 27.0006C11.0447 27.0006 6.68391 23.6679 5.38756 18.8882Z" fill="currentColor"/>
</g>
<defs>
<clipPath id="clip0_864_29142">
<rect width="22" height="22" fill="white" transform="translate(27 5) rotate(90)"/>
</clipPath>
</defs>
</svg>
