<svg width="32" height="32" viewBox="0 0 32 32" fill="none" xmlns="http://www.w3.org/2000/svg">
<g clip-path="url(#clip0_864_29141)">
<path d="M12.3918 14.2727L15.9995 17.8804L19.6071 14.2727L20.3472 15.0126L15.9995 19.3601L11.6518 15.0126L12.3918 14.2727Z" fill="currentColor"/>
<path d="M16.5232 18.6202L15.4754 18.6202L15.4754 5.00125L16.5232 5.00125L16.5232 18.6202Z" fill="currentColor"/>
<path d="M13.1117 5.38768L13.3868 6.39591C9.06538 7.56796 6.04682 11.5163 6.04682 16.0013C6.04682 21.4883 10.5123 25.9538 15.9993 25.9538C21.4862 25.9538 25.9517 21.4883 25.9517 16.0013C25.9517 11.5163 22.9332 7.56796 18.6117 6.39591L18.8868 5.38768C23.6665 6.68403 26.9993 11.0448 26.9993 16.0013C26.9993 22.0643 22.0623 27.0013 15.9993 27.0013C9.93626 27.0013 4.99927 22.0643 4.99927 16.0013C4.99927 11.0448 8.33203 6.68403 13.1117 5.38768Z" fill="currentColor"/>
</g>
<defs>
<clipPath id="clip0_864_29141">
<rect width="22" height="22" fill="white" transform="translate(27 27) rotate(-180)"/>
</clipPath>
</defs>
</svg>
