<svg width="32" height="32" viewBox="0 0 32 32" fill="none" xmlns="http://www.w3.org/2000/svg">
<g clip-path="url(#clip0_864_29140)">
<path d="M19.6082 17.7273L16.0005 14.1196L12.3929 17.7273L11.6528 16.9874L16.0005 12.6399L20.3482 16.9874L19.6082 17.7273Z" fill="currentColor"/>
<path d="M15.4768 13.3798H16.5246V26.9987H15.4768V13.3798Z" fill="currentColor"/>
<path d="M18.8883 26.6123L18.6132 25.6041C22.9346 24.432 25.9532 20.4837 25.9532 15.9987C25.9532 10.5117 21.4877 6.04621 16.0007 6.04621C10.5138 6.04621 6.04829 10.5117 6.04829 15.9987C6.04829 20.4837 9.06684 24.432 13.3883 25.6041L13.1132 26.6123C8.3335 25.316 5.00073 20.9552 5.00073 15.9987C5.00073 9.93565 9.93773 4.99866 16.0007 4.99866C22.0637 4.99866 27.0007 9.93565 27.0007 15.9987C27.0007 20.9552 23.668 25.316 18.8883 26.6123Z" fill="currentColor"/>
</g>
<defs>
<clipPath id="clip0_864_29140">
<rect width="22" height="22" fill="white" transform="translate(5 5)"/>
</clipPath>
</defs>
</svg>
