<svg width="12" height="12" viewBox="0 0 12 12" fill="none" xmlns="http://www.w3.org/2000/svg">
    <path d="M6.00684 0.999512C3.24544 0.999512 1.00684 3.23801 1.00684 5.99951C1.00684 8.76101 3.24539 10.9995 6.00684 10.9995C8.76824 10.9995 11.0068 8.76101 11.0068 5.99951C11.0068 3.23801 8.76824 0.999512 6.00684 0.999512Z" fill="currentColor"/>
    <path fill-rule="evenodd" clip-rule="evenodd" d="M6 3C6.27614 3 6.5 3.22386 6.5 3.5V5.79289L7.85355 7.14645C8.04882 7.34171 8.04882 7.65829 7.85355 7.85355C7.65829 8.04882 7.34171 8.04882 7.14645 7.85355L5.64645 6.35355C5.55268 6.25979 5.5 6.13261 5.5 6V3.5C5.5 3.22386 5.72386 3 6 3Z" fill="white"/>
</svg>
