<svg width="32" height="32" viewBox="0 0 32 32" fill="none" xmlns="http://www.w3.org/2000/svg">
<path d="M25.252 11.5963C25.5178 11.5963 25.7596 11.7118 25.9502 11.9078C26.1278 12.1171 26.2173 12.3774 26.1914 12.652C26.1914 12.7426 25.4801 21.7297 25.0742 25.5123C24.8199 27.8334 23.3236 29.2422 21.0791 29.2809C19.3532 29.3195 17.666 29.3336 16.0049 29.3336C14.2414 29.3336 12.5168 29.3195 10.8428 29.2809C8.67344 29.2289 7.17588 27.7948 6.93457 25.5123C6.51702 21.7164 5.81961 12.7426 5.80664 12.652C5.79371 12.3774 5.88163 12.1171 6.06055 11.9078C6.23685 11.712 6.49088 11.5964 6.75781 11.5963H25.252ZM18.7529 2.66663C19.9317 2.66663 20.9843 3.4894 21.2891 4.66272L21.5068 5.63635C21.6833 6.42951 22.3712 6.99084 23.1621 6.99084H27.0498C27.5684 6.99102 28 7.42148 28 7.96936V8.4762C27.9998 9.01062 27.5683 9.45453 27.0498 9.45471H4.95215C4.43225 9.45471 4.00016 9.01073 4 8.4762V7.96936C4 7.42137 4.43216 6.99084 4.95215 6.99084H8.83984C9.62936 6.99064 10.3165 6.42916 10.4941 5.63733L10.6973 4.72815C11.0137 3.4895 12.0554 2.66663 13.2471 2.66663H18.7529Z" fill="currentColor"/>
</svg>
