<svg width="32" height="32" viewBox="0 0 32 32" fill="none" xmlns="http://www.w3.org/2000/svg">
<path opacity="0.3" fill-rule="evenodd" clip-rule="evenodd" d="M16.0001 29.3333C23.3639 29.3333 29.3334 23.3638 29.3334 16C29.3334 8.63616 23.3639 2.66663 16.0001 2.66663C8.63628 2.66663 2.66675 8.63616 2.66675 16C2.66675 23.3638 8.63628 29.3333 16.0001 29.3333Z" fill="currentColor"/>
<path d="M20.0546 10.1553C20.4451 9.7648 21.0782 9.7648 21.4687 10.1553L21.9394 10.626C22.3299 11.0165 22.3299 11.6496 21.9394 12.0401L17.9316 16.0469L21.9394 20.0547C22.3299 20.4453 22.3299 21.0783 21.9394 21.4688L21.4687 21.9395C21.0782 22.33 20.4451 22.33 20.0546 21.9395L16.0468 17.9317L12.04 21.9395C11.6494 22.33 11.0164 22.33 10.6259 21.9395L10.1552 21.4688C9.76467 21.0783 9.76467 20.4453 10.1552 20.0547L14.162 16.0469L10.1552 12.0401C9.76467 11.6496 9.76467 11.0165 10.1552 10.626L10.6259 10.1553C11.0164 9.7648 11.6494 9.7648 12.04 10.1553L16.0468 14.1622L20.0546 10.1553Z" fill="currentColor"/>
</svg>
