<svg width="32" height="32" viewBox="0 0 32 32" fill="none" xmlns="http://www.w3.org/2000/svg">
<path d="M18.4267 1.48484C18.1286 1.17655 17.6911 1.04313 17.2776 1.13448C9.4447 2.8352 7.29806 10.5708 7.18629 16.0882L5.63821 14.8815C5.27282 14.5972 4.78244 14.5419 4.36537 14.7342C3.9471 14.9277 3.67186 15.3376 3.65143 15.7979C3.42306 20.9776 4.67547 24.9434 7.37499 27.584C14.4937 34.5476 28.8504 30.1072 28.3678 18.1177C28.3522 17.6411 28.0637 17.2174 27.6262 17.0281C27.2812 16.8803 26.8954 16.8977 26.5709 17.066C27.262 13.5311 25.5264 10.4025 24.2332 9.00828C23.9375 8.69097 23.4964 8.54974 23.0733 8.64169C22.649 8.73244 22.3041 9.03893 22.1647 9.44998C21.619 11.0564 20.6034 11.3424 20.2548 11.3935C16.8558 10.2517 18.7091 2.72462 18.7296 2.6477C18.8365 2.23424 18.7223 1.79373 18.4267 1.48484ZM17.07 28.343C16.8041 28.3716 16.5339 28.3962 16.2518 28.4108C14.7338 28.3092 13.5228 26.9149 13.5228 25.1994C13.5228 24.108 15.03 22.1904 16.4243 20.7961C17.8185 22.1904 19.3245 24.108 19.3245 25.1994C19.3245 26.7327 18.3588 28.0143 17.07 28.343Z" fill="currentColor"/>
</svg>
