<svg width="32" height="32" viewBox="0 0 32 32" fill="none" xmlns="http://www.w3.org/2000/svg">
<path d="M29.7867 12.44L27.1201 11.1066C26.6267 10.8666 26.0134 11.0533 25.7734 11.5466C25.5201 12.0533 25.7201 12.6533 26.2134 12.8933L28.3334 13.9466V20.3333L23.3334 20.3466V6.66663C23.3334 3.99996 21.5467 2.66663 19.3334 2.66663H8.66675C6.45341 2.66663 4.66675 3.99996 4.66675 6.66663V28.3333H2.66675C2.12008 28.3333 1.66675 28.7866 1.66675 29.3333C1.66675 29.88 2.12008 30.3333 2.66675 30.3333H25.3334C25.8801 30.3333 26.3334 29.88 26.3334 29.3333C26.3334 28.7866 25.8801 28.3333 25.3334 28.3333H23.3334V22.3466L29.3334 22.3333C29.8934 22.3333 30.3334 21.88 30.3334 21.3333V13.3333C30.3334 12.96 30.1201 12.6133 29.7867 12.44ZM8.00008 9.18663C8.00008 7.33329 9.13341 6.66663 10.5201 6.66663H17.4934C18.8667 6.66663 20.0001 7.33329 20.0001 9.18663V10.8266C20.0001 12.6666 18.8667 13.3333 17.4801 13.3333H10.5201C9.13341 13.3333 8.00008 12.6666 8.00008 10.8133V9.18663ZM8.66675 16.3333H12.6667C13.2134 16.3333 13.6667 16.7866 13.6667 17.3333C13.6667 17.88 13.2134 18.3333 12.6667 18.3333H8.66675C8.12008 18.3333 7.66675 17.88 7.66675 17.3333C7.66675 16.7866 8.12008 16.3333 8.66675 16.3333Z" fill="currentColor"/>
</svg>
