<svg width="32" height="32" viewBox="0 0 32 32" fill="none" xmlns="http://www.w3.org/2000/svg">
<path d="M27.7296 15.7095C28.0901 15.3466 28.0901 14.7583 27.7296 14.3955L20.0886 6.70428C19.3067 5.91719 18.6547 5.26085 18.0675 4.80987C17.4476 4.33387 16.7928 4 16 4C15.2072 4 14.5524 4.33387 13.9325 4.80988C13.3453 5.26085 12.6933 5.91719 11.9114 6.70428L4.27036 14.3955C3.90988 14.7583 3.90988 15.3466 4.27036 15.7095C4.63085 16.0723 5.21531 16.0723 5.57579 15.7095L6.1046 15.1772V19.2442C6.1046 23.2364 8.83458 26.7035 12.6959 27.6152C14.8691 28.1283 17.1308 28.1283 19.304 27.6152C23.1654 26.7035 25.8954 23.2364 25.8954 19.2442V15.1771L26.4242 15.7095C26.7847 16.0723 27.3692 16.0723 27.7296 15.7095Z" fill="currentColor" stroke="currentColor" stroke-opacity="0.9" stroke-width="1.5" stroke-linecap="round"/>
</svg>
