<svg width="32" height="32" viewBox="0 0 32 32" fill="none" xmlns="http://www.w3.org/2000/svg">
<path d="M16.0003 3C13.4291 3 10.9157 3.76244 8.77784 5.1909C6.64 6.61935 4.97376 8.64968 3.98982 11.0251C3.00588 13.4006 2.74843 16.0144 3.25004 18.5362C3.75165 21.0579 4.98978 23.3743 6.80786 25.1924C8.62594 27.0105 10.9423 28.2486 13.4641 28.7502C15.9858 29.2518 18.5997 28.9944 20.9751 28.0104C23.3506 27.0265 25.3809 25.3603 26.8094 23.2224C28.2378 21.0846 29.0002 18.5712 29.0002 16C28.9963 12.5534 27.6253 9.24912 25.1882 6.81201C22.7511 4.3749 19.4468 3.00398 16.0003 3ZM16.0001 9C16.2968 9 16.5868 9.08797 16.8335 9.2528C17.0802 9.41762 17.2724 9.65189 17.3859 9.92597C17.4995 10.2001 17.5292 10.5017 17.4713 10.7926C17.4134 11.0836 17.2706 11.3509 17.0608 11.5607C16.851 11.7704 16.5837 11.9133 16.2928 11.9712C16.0018 12.0291 15.7002 11.9994 15.4261 11.8858C15.152 11.7723 14.9177 11.58 14.7529 11.3334C14.5881 11.0867 14.5001 10.7967 14.5001 10.5C14.5001 10.303 14.5389 10.108 14.6143 9.92597C14.6897 9.74399 14.8002 9.57863 14.9395 9.43934C15.0788 9.30005 15.2441 9.18956 15.4261 9.11418C15.6081 9.0388 15.8031 9 16.0001 9H16.0001ZM17.0003 23H16.0003C15.8689 23.0001 15.7388 22.9743 15.6175 22.924C15.4961 22.8738 15.3858 22.8001 15.293 22.7073C15.2001 22.6144 15.1264 22.5041 15.0762 22.3828C15.026 22.2614 15.0002 22.1313 15.0002 22V16C14.735 16 14.4807 15.8946 14.2931 15.7071C14.1056 15.5196 14.0002 15.2652 14.0002 15C14.0002 14.7348 14.1056 14.4804 14.2931 14.2929C14.4807 14.1054 14.735 14 15.0002 14H16.0003C16.1316 13.9999 16.2617 14.0257 16.383 14.076C16.5044 14.1262 16.6147 14.1999 16.7075 14.2927C16.8004 14.3856 16.8741 14.4959 16.9243 14.6172C16.9745 14.7386 17.0003 14.8687 17.0003 15V21C17.2655 21 17.5198 21.1054 17.7074 21.2929C17.8949 21.4804 18.0003 21.7348 18.0003 22C18.0003 22.2652 17.8949 22.5196 17.7074 22.7071C17.5198 22.8946 17.2655 23 17.0003 23Z" fill="currentColor"/>
</svg>
