<svg width="32" height="32" viewBox="0 0 32 32" fill="none" xmlns="http://www.w3.org/2000/svg">
<path opacity="0.3" fill-rule="evenodd" clip-rule="evenodd" d="M10.6667 3.33337C9.74619 3.33337 9 4.07957 9 5.00004V27C9 27.9205 9.74619 28.6667 10.6667 28.6667H21.3333C22.2538 28.6667 23 27.9205 23 27V5.00004C23 4.07957 22.2538 3.33337 21.3333 3.33337H10.6667Z" fill="currentColor"/>
<path d="M21.333 1.33337C23.3581 1.33337 25 2.97532 25 5.00037V27.0004C24.9998 29.0253 23.3579 30.6664 21.333 30.6664H10.667C8.64206 30.6664 7.00018 29.0253 7 27.0004V5.00037C7 2.97532 8.64195 1.33337 10.667 1.33337H21.333ZM12.5 2.33337C12.2239 2.33337 12 2.55723 12 2.83337V3.33337H10.667C9.74652 3.33337 9 4.07989 9 5.00037V27.0004C9.00018 27.9207 9.74663 28.6664 10.667 28.6664H21.333C22.2534 28.6664 22.9998 27.9207 23 27.0004V5.00037C23 4.07989 22.2535 3.33337 21.333 3.33337H20V2.83337C20 2.55723 19.7761 2.33337 19.5 2.33337H12.5ZM20 3.33337V4.50037C19.9998 4.77636 19.776 5.00037 19.5 5.00037H12.5C12.224 5.00037 12.0002 4.77636 12 4.50037V3.33337H20Z" fill="currentColor"/>
</svg>
