<svg width="32" height="32" viewBox="0 0 32 32" fill="none" xmlns="http://www.w3.org/2000/svg">
<path opacity="0.3" fill-rule="evenodd" clip-rule="evenodd" d="M15.1545 14.4301L6.66656 22.6667L6.66656 26.6667L10.6666 26.6667L10.6666 24L13.2556 24V21.3334L15.9999 21.3334L18.9125 18.1881L15.1545 14.4301Z" fill="currentColor"/>
<path d="M26.9706 6.32348C30.0948 9.44767 30.0948 14.513 26.9706 17.6372C23.8464 20.7614 18.7811 20.7614 15.6569 17.6372C12.5327 14.513 12.5327 9.44767 15.6569 6.32348C18.7811 3.19929 23.8464 3.19929 26.9706 6.32348ZM24.243 9.41431C23.4619 8.63329 22.1956 8.63335 21.4145 9.41431C20.6335 10.1954 20.6335 11.4617 21.4145 12.2427C22.1956 13.0236 23.462 13.0237 24.243 12.2427C25.0239 11.4618 25.0238 10.1953 24.243 9.41431Z" fill="currentColor"/>
</svg>
