<svg width="32" height="32" viewBox="0 0 32 32" fill="none" xmlns="http://www.w3.org/2000/svg">
<path fill-rule="evenodd" clip-rule="evenodd" d="M13.2771 4.38349C13.4887 3.67816 13.0885 2.93485 12.3831 2.72325C12.1612 2.65668 12 2.66667 12 2.66667H18.6667C19.0953 2.66667 19.4977 2.8727 19.7483 3.22039C19.9989 3.56808 20.0671 4.01504 19.9316 4.42164L17.8499 10.6667H24C24.4917 10.6667 24.9435 10.9373 25.1756 11.3709C25.4076 11.8044 25.3822 12.3305 25.1094 12.7396L14.4633 28.7088C14.5636 28.549 14.6314 28.3653 14.6564 28.1657L15.357 22.5608L21.5086 13.3333H16C15.5714 13.3333 15.1689 13.1273 14.9183 12.7796C14.6677 12.4319 14.5996 11.985 14.7351 11.5784L16.8168 5.33334H12.9922L13.2771 4.38349Z" fill="currentColor" opacity="0.4"/>
<path fill-rule="evenodd" clip-rule="evenodd" d="M12.3832 2.72296C13.0885 2.93456 13.4888 3.67787 13.2772 4.3832L9.79213 16.0001H14.6668C15.0492 16.0001 15.4132 16.1643 15.6663 16.451C15.9194 16.7377 16.0372 17.1193 15.9898 17.4988L14.6565 28.1654C14.5651 28.8961 13.8987 29.4144 13.168 29.3231C12.4374 29.2318 11.9191 28.5654 12.0104 27.8347L13.1564 18.6667H8.00009C7.57862 18.6667 7.18196 18.4675 6.93037 18.1293C6.67878 17.7912 6.60188 17.354 6.72299 16.9503L10.723 3.61694C10.9346 2.91161 11.6779 2.51137 12.3832 2.72296Z" fill="currentColor"/>
</svg>
