<svg width="32" height="32" viewBox="0 0 32 32" fill="none" xmlns="http://www.w3.org/2000/svg">
<g clip-path="url(#clip0_864_29145)">
<path d="M25.2562 4.44641H9.76245C6.0437 4.44641 3.0187 7.21516 3.0187 10.6277V21.4902L0.206198 25.6339C-0.175052 26.1964 -0.0313018 26.9652 0.531198 27.3464C0.737448 27.4839 0.974948 27.5589 1.22495 27.5589H25.2499C28.9687 27.5589 31.9937 24.7839 31.9937 21.3777V10.6277C31.9999 7.22141 28.9749 4.44641 25.2562 4.44641ZM18.9999 20.6777H10.5437C9.86245 20.6777 9.31245 20.1277 9.31245 19.4464C9.31245 18.7652 9.86245 18.2152 10.5437 18.2152H18.9999C19.6812 18.2152 20.2312 18.7652 20.2312 19.4464C20.2312 20.1277 19.6812 20.6777 18.9999 20.6777ZM24.5437 13.7902H10.5437C9.86245 13.7902 9.31245 13.2402 9.31245 12.5589C9.31245 11.8777 9.86245 11.3277 10.5437 11.3277H24.5437C25.2249 11.3277 25.7749 11.8777 25.7749 12.5589C25.7749 13.2402 25.2249 13.7902 24.5437 13.7902Z" fill="currentColor"/>
</g>
<defs>
<clipPath id="clip0_864_29145">
<rect width="32" height="32" fill="white"/>
</clipPath>
</defs>
</svg>
