<svg width="32" height="32" viewBox="0 0 32 32" fill="none" xmlns="http://www.w3.org/2000/svg">
<path d="M17.8648 10.1947C17.9934 9.83632 18.5066 9.83632 18.6352 10.1947L18.9868 11.1748C19.028 11.2895 19.1193 11.3798 19.2355 11.4204L20.2278 11.7677C20.5907 11.8947 20.5907 12.4016 20.2278 12.5286L19.2355 12.8759C19.1193 12.9165 19.028 13.0068 18.9868 13.1215L18.6352 14.1016C18.5066 14.46 17.9934 14.46 17.8648 14.1016L17.5132 13.1215C17.472 13.0068 17.3807 12.9165 17.2645 12.8759L16.2722 12.5286C15.9093 12.4016 15.9093 11.8947 16.2722 11.7677L17.2645 11.4204C17.3807 11.3798 17.472 11.2895 17.5132 11.1748L17.8648 10.1947Z" fill="currentColor"/>
<path d="M21.7432 14.5496C21.8289 14.3106 22.1711 14.3106 22.2568 14.5496L22.4912 15.203C22.5186 15.2794 22.5796 15.3396 22.657 15.3667L23.3186 15.5982C23.5605 15.6829 23.5605 16.0208 23.3186 16.1055L22.657 16.337C22.5796 16.3641 22.5186 16.4243 22.4912 16.5007L22.2568 17.1541C22.1711 17.3931 21.8289 17.3931 21.7432 17.1541L21.5088 16.5007C21.4814 16.4243 21.4204 16.3641 21.343 16.337L20.6814 16.1055C20.4395 16.0208 20.4395 15.6829 20.6814 15.5982L21.343 15.3667C21.4204 15.3396 21.4814 15.2794 21.5088 15.203L21.7432 14.5496Z" fill="currentColor"/>
<path d="M23.6924 4.38912C23.8785 3.87029 24.6215 3.87029 24.8076 4.38912L25.4455 6.16734C25.5051 6.33342 25.6374 6.46407 25.8056 6.52292L27.606 7.153C28.1313 7.33684 28.1313 8.07057 27.606 8.25441L25.8056 8.88449C25.6374 8.94334 25.5051 9.07399 25.4455 9.24006L24.8076 11.0183C24.6215 11.5371 23.8785 11.5371 23.6924 11.0183L23.0545 9.24006C22.9949 9.07399 22.8626 8.94334 22.6944 8.88449L20.894 8.25441C20.3687 8.07057 20.3687 7.33684 20.894 7.153L22.6944 6.52292C22.8626 6.46407 22.9949 6.33342 23.0545 6.16734L23.6924 4.38912Z" fill="currentColor"/>
<path d="M4 17.9462C4 23.4988 8.63226 28 14.3465 28C18.7454 28 22.5032 25.3324 24 21.5711C22.8146 22.1122 21.4909 22.4146 20.0945 22.4146C15.0152 22.4146 10.8976 18.4135 10.8976 13.4778C10.8976 11.4137 11.6178 9.51295 12.8274 8C7.83336 8.714 4 12.8951 4 17.9462Z" stroke="currentColor" stroke-width="1.5" stroke-linecap="round" stroke-linejoin="round"/>
</svg>
