<svg width="32" height="32" viewBox="0 0 32 32" fill="none" xmlns="http://www.w3.org/2000/svg">
<path d="M16.0001 2.66663C14.1882 2.66663 12.5783 3.40531 11.3371 4.70398C9.61555 4.69731 7.81235 5.27063 6.54168 6.5413C5.27115 7.81197 4.64875 9.64532 4.71901 11.308C3.42115 12.5493 2.66675 14.188 2.66675 16C2.66675 17.812 3.43235 19.4706 4.73008 20.712C4.68942 22.5173 5.27115 24.188 6.54168 25.4586C7.81248 26.7293 9.49181 27.2746 11.2986 27.292C12.5399 28.5893 14.1882 29.3333 16.0001 29.3333C17.8119 29.3333 19.4374 28.5973 20.6786 27.2999C22.4286 27.2933 24.1878 26.7293 25.4585 25.4586C26.729 24.188 27.3327 22.4187 27.2811 20.7067C28.5789 19.4653 29.3334 17.812 29.3334 16C29.3334 14.188 28.576 12.564 27.2782 11.3226C27.3189 9.5173 26.729 7.81197 25.4585 6.5413C24.1877 5.27063 22.3546 4.65059 20.6937 4.71326C19.4525 3.41592 17.8118 2.66663 16.0001 2.66663ZM16.0001 5.33329C17.1978 5.33329 18.2954 5.91461 19.0834 6.91728C19.3689 7.27994 19.8333 7.46797 20.2918 7.41597C21.5773 7.27197 22.7177 7.63462 23.5417 8.45862C24.3657 9.28262 24.7279 10.4226 24.5834 11.708C24.5318 12.1666 24.7207 12.6306 25.0834 12.9173C26.0849 13.7053 26.6667 14.8026 26.6667 16C26.6667 17.1973 26.0849 18.2946 25.0834 19.0826C24.7207 19.3693 24.5318 19.8333 24.5834 20.292C24.7279 21.5773 24.3657 22.7173 23.5417 23.5413C22.7178 24.3653 21.5773 24.7279 20.2918 24.5839C19.8332 24.5319 19.3687 24.72 19.0834 25.0826C18.2954 26.0853 17.1978 26.6666 16.0001 26.6666C14.8023 26.6666 13.7049 26.0853 12.9167 25.0826C12.6313 24.72 12.1669 24.5319 11.7083 24.5839C10.4229 24.7279 9.28235 24.3653 8.45848 23.5413C7.63448 22.7173 7.27235 21.5773 7.41675 20.292C7.46835 19.8333 7.27941 19.3693 6.91675 19.0826C5.91528 18.2946 5.33341 17.1973 5.33341 16C5.33341 14.8026 5.91528 13.7053 6.91675 12.9173C7.27941 12.6306 7.46835 12.1666 7.41675 11.708C7.27221 10.4226 7.63448 9.28262 8.45848 8.45862C9.28235 7.63462 10.4229 7.27197 11.7083 7.41597C12.167 7.46797 12.6314 7.27994 12.9167 6.91728C13.7047 5.91461 14.8023 5.33329 16.0001 5.33329Z" fill="currentColor" opacity="0.4"/>
<path fill-rule="evenodd" clip-rule="evenodd" d="M20.9429 12.3905C21.4636 12.9112 21.4636 13.7554 20.9429 14.2761L15.6096 19.6095C15.0889 20.1302 14.2446 20.1302 13.7239 19.6095L11.0573 16.9428C10.5366 16.4221 10.5366 15.5779 11.0573 15.0572C11.578 14.5365 12.4222 14.5365 12.9429 15.0572L14.6667 16.781L19.0573 12.3905C19.578 11.8698 20.4222 11.8698 20.9429 12.3905Z" fill="currentColor"/>
</svg>
