<svg width="32" height="32" viewBox="0 0 32 32" fill="none" xmlns="http://www.w3.org/2000/svg">
<path d="M16.0002 28C22.6277 28 28.0002 22.6274 28.0002 16C28.0002 9.37258 22.6277 4 16.0002 4C9.37283 4 4.00024 9.37258 4.00024 16C4.00024 22.6274 9.37283 28 16.0002 28Z" stroke="currentColor" stroke-width="3" stroke-linecap="round" stroke-linejoin="round"/>
<path d="M16.0002 18V17C16.7914 17 17.5647 16.7654 18.2225 16.3259C18.8803 15.8864 19.393 15.2616 19.6958 14.5307C19.9985 13.7998 20.0777 12.9956 19.9234 12.2196C19.769 11.4437 19.3881 10.731 18.8287 10.1716C18.2693 9.61216 17.5565 9.2312 16.7806 9.07686C16.0047 8.92252 15.2004 9.00173 14.4695 9.30448C13.7386 9.60723 13.1139 10.1199 12.6744 10.7777C12.2348 11.4355 12.0002 12.2089 12.0002 13" stroke="currentColor" stroke-width="3" stroke-linecap="round" stroke-linejoin="round"/>
<path d="M16 25C17.1046 25 18 24.1046 18 23C18 21.8954 17.1046 21 16 21C14.8954 21 14 21.8954 14 23C14 24.1046 14.8954 25 16 25Z" fill="currentColor"/>
</svg>
