<svg width="32" height="32" viewBox="0 0 32 32" fill="none" xmlns="http://www.w3.org/2000/svg">
<rect opacity="0.01" width="32" height="32" fill="white"/>
<path d="M21.1462 19.2654C21.0702 22.1946 19.8977 24.9887 17.8611 27.0955L14.2625 23.5105C16.8132 22.5609 19.1526 21.1183 21.1462 19.2654ZM12.5906 22.8572L12.0359 24.6072C12.0073 24.7058 11.9271 24.7813 11.8269 24.8035C11.7302 24.828 11.6276 24.7981 11.5593 24.7253L6.79175 19.9578C6.71998 19.8889 6.69198 19.7857 6.71948 19.6902C6.73781 19.5904 6.81148 19.5094 6.90894 19.4812L8.7644 18.9392L12.5906 22.8572ZM27.1804 4.36206C27.0265 12.7629 21.6752 20.1868 13.7537 22.988L8.52905 17.7634C9.49732 15.004 11.0576 12.4899 13.1003 10.3972C13.1225 10.3824 13.14 10.3614 13.1521 10.3376C16.8585 6.57183 21.8973 4.41429 27.1804 4.32983V4.36206ZM12.1335 10.449C10.3376 12.4317 8.94061 14.7421 8.01929 17.2537L4.47339 13.7146C6.54078 11.7249 9.26646 10.5627 12.1335 10.449ZM21.8298 7.85522C20.3494 7.24521 18.644 7.76558 17.7566 9.09839C16.8695 10.4312 17.0476 12.2053 18.1814 13.3357C18.8119 13.9653 19.6673 14.3178 20.5583 14.3152C22.1594 14.3117 23.535 13.178 23.8445 11.6072C24.1538 10.0361 23.3103 8.4653 21.8298 7.85522Z" fill="currentColor"/>
<path d="M8.19575 23.262C8.1365 23.1989 8.05377 23.1631 7.96718 23.1631C7.88059 23.1631 7.79786 23.1989 7.73861 23.262L6.06677 24.9339C5.9753 25.0272 5.94825 25.166 5.99799 25.2868C6.04774 25.4076 6.1647 25.4871 6.29534 25.489C6.38194 25.49 6.46495 25.4545 6.52391 25.391L8.19575 23.7257C8.25757 23.6644 8.29234 23.5809 8.29234 23.4939C8.29234 23.4068 8.25757 23.3233 8.19575 23.262V23.262Z" fill="currentColor"/>
<path d="M8.90104 25.2082L8.01288 26.1225C7.88763 26.2517 7.88763 26.457 8.01288 26.5862C8.07517 26.6487 8.15973 26.6839 8.24798 26.6841C8.33411 26.6829 8.41627 26.6477 8.47655 26.5862L9.36472 25.698C9.42653 25.6367 9.4613 25.5532 9.4613 25.4662C9.4613 25.3791 9.42653 25.2956 9.36472 25.2343C9.24272 25.1015 9.03719 25.0899 8.90104 25.2082V25.2082Z" fill="currentColor"/>
<path d="M6.24973 22.0931C6.12054 21.9678 5.91524 21.9678 5.78605 22.0931L4.89789 22.9812C4.77264 23.1104 4.77264 23.3157 4.89789 23.4449C4.96018 23.5074 5.04474 23.5427 5.13299 23.5429C5.21912 23.5416 5.30128 23.5064 5.36156 23.4449L6.24973 22.5568C6.31154 22.4954 6.34631 22.412 6.34631 22.3249C6.34631 22.2379 6.31154 22.1544 6.24973 22.0931V22.0931Z" fill="currentColor"/>
</svg>
