<svg width="32" height="32" viewBox="0 0 32 32" fill="none" xmlns="http://www.w3.org/2000/svg">
<path d="M26.7999 11.48C29.5199 11.9334 30.1599 13.9067 28.1999 15.8534L24.8932 19.16C24.3332 19.72 24.0265 20.8 24.1999 21.5734L25.1465 25.6667C25.8932 28.9067 24.1732 30.16 21.3065 28.4667L17.3199 26.1067C16.5999 25.68 15.4132 25.68 14.6799 26.1067L10.6932 28.4667C7.83988 30.16 6.10655 28.8934 6.85321 25.6667L7.79988 21.5734C7.97321 20.8 7.66655 19.72 7.10655 19.16L3.79988 15.8534C1.85321 13.9067 2.47988 11.9334 5.19988 11.48L9.45321 10.7734C10.1599 10.6534 11.0132 10.0267 11.3332 9.37335L13.6799 4.68002C14.9465 2.13335 17.0265 2.13335 18.3065 4.68002L20.6532 9.37335C20.7865 9.65335 21.0265 9.93335 21.3065 10.16" stroke="currentColor" stroke-width="1.5" stroke-linecap="round" stroke-linejoin="round"/>
</svg>
