<svg width="32" height="32" viewBox="0 0 32 32" fill="none" xmlns="http://www.w3.org/2000/svg">
<g clip-path="url(#clip0_864_29147)">
<path d="M19.1924 19.7338C19.0851 19.4227 18.8117 19.1971 18.4853 19.1527L13.7361 18.4955L11.3969 13.9889C11.0953 13.4096 10.1443 13.4096 9.84347 13.9889L7.50468 18.4955L2.75544 19.1527C2.42863 19.1971 2.15519 19.4227 2.04792 19.7338C1.94029 20.0456 2.01712 20.3918 2.24663 20.6284L5.98507 24.4856L4.97978 28.9316C4.90331 29.2708 5.03447 29.6228 5.31429 29.8288C5.59499 30.0364 5.96967 30.0578 6.27049 29.8826L10.6203 27.3756L14.9701 29.8826C15.106 29.9612 15.2567 29.9997 15.4072 29.9997C15.59 29.9997 15.7725 29.9425 15.9263 29.8288C16.2061 29.6228 16.3373 29.2708 16.2608 28.9316L15.256 24.4856L18.994 20.6284C19.2234 20.3918 19.3 20.0457 19.1924 19.7338Z" fill="currentColor"/>
<path d="M29.9266 7.34953C29.8193 7.03768 29.5458 6.81289 29.2195 6.76765L25.2722 6.22078L23.3264 2.4721C23.0256 1.89276 22.0738 1.89276 21.773 2.4721L19.8273 6.22078L15.88 6.76765C15.5536 6.81298 15.2802 7.03768 15.1729 7.34953C15.0653 7.66059 15.1421 8.00665 15.3716 8.24334L18.482 11.452L17.648 15.1408C17.5716 15.48 17.7027 15.832 17.9825 16.038C18.2632 16.2457 18.6379 16.2661 18.9387 16.0918L22.5499 14.0103L26.1606 16.0918C26.2964 16.1704 26.4472 16.2089 26.5976 16.2089C26.7805 16.2089 26.9629 16.1517 27.1168 16.038C27.3966 15.832 27.5277 15.48 27.4513 15.1408L26.6173 11.452L29.7277 8.24334C29.9575 8.00665 30.0343 7.66059 29.9266 7.34953Z" fill="currentColor"/>
<path d="M7.94807 9.97916C7.60114 9.97916 7.2871 9.77406 7.14745 9.45705L6.97402 9.06312C6.86421 8.81278 6.66637 8.61538 6.41735 8.50513L6.02255 8.33171C5.7051 8.19241 5.5 7.87793 5.5 7.53108C5.5 7.18423 5.7051 6.86967 6.02255 6.73046L6.41691 6.55703C6.66646 6.44678 6.86421 6.24938 6.97359 5.99992L7.14745 5.60512C7.28719 5.28811 7.60122 5.08301 7.94807 5.08301C8.29492 5.08301 8.60905 5.28811 8.7487 5.60512L8.92212 5.99905C9.03194 6.24938 9.22977 6.44678 9.4788 6.55616L9.8736 6.73046C10.191 6.86976 10.3961 7.18423 10.3961 7.53108C10.3961 7.87793 10.191 8.1925 9.8736 8.33171L9.47967 8.50513C9.22977 8.61538 9.03194 8.81278 8.92256 9.06225L8.7487 9.45705C8.60896 9.77406 8.29492 9.97916 7.94807 9.97916Z" fill="currentColor"/>
<path d="M24.597 25.3113C24.2501 25.3113 23.936 25.1062 23.7964 24.7892L23.623 24.3953C23.5127 24.1449 23.3149 23.9475 23.0658 23.8373L22.6715 23.6639C22.354 23.5246 22.1489 23.2101 22.1489 22.8632C22.1489 22.5164 22.354 22.2018 22.6715 22.0626L23.0654 21.8892C23.315 21.7789 23.5127 21.5815 23.623 21.3321L23.7964 20.9373C23.9361 20.6203 24.2502 20.4152 24.597 20.4152C24.9439 20.4152 25.2584 20.6203 25.3981 20.9381L25.5711 21.3321C25.681 21.5816 25.8788 21.7789 26.1278 21.8892L26.5226 22.0626C26.8401 22.2019 27.0452 22.5164 27.0452 22.8632C27.0452 23.2101 26.8401 23.5246 26.5226 23.6639L26.1283 23.8373C25.8787 23.9475 25.681 24.1449 25.5707 24.3944L25.3981 24.7883C25.2583 25.1062 24.9439 25.3113 24.597 25.3113Z" fill="currentColor"/>
</g>
<defs>
<clipPath id="clip0_864_29147">
<rect width="28" height="28" fill="white" transform="translate(2 2)"/>
</clipPath>
</defs>
</svg>
