<svg width="32" height="32" viewBox="0 0 32 32" fill="none" xmlns="http://www.w3.org/2000/svg">
<path d="M18.8799 13.3334H19.6665" stroke="currentColor" stroke-width="1.5" stroke-linecap="round" stroke-linejoin="round"/>
<path d="M12.3333 13.3334H15.5332" stroke="currentColor" stroke-width="1.5" stroke-linecap="round" stroke-linejoin="round"/>
<path d="M4.66665 14.6666V24.4C4.66665 27.9466 6.61331 28.7866 8.97331 26.2533L8.98665 26.24C10.08 25.08 11.7467 25.1733 12.6933 26.44L14.04 28.24C15.12 29.6666 16.8667 29.6666 17.9467 28.24L19.2933 26.44C20.2533 25.16 21.92 25.0666 23.0133 26.24C25.3866 28.7733 27.32 27.9333 27.32 24.3866V9.38663C27.32 4.01329 26.0667 2.66663 21.0267 2.66663H10.9467C5.90666 2.66663 4.65332 4.01329 4.65332 9.38663" stroke="currentColor" stroke-width="1.5" stroke-linecap="round" stroke-linejoin="round"/>
</svg>
