<svg width="32" height="32" viewBox="0 0 32 32" fill="none" xmlns="http://www.w3.org/2000/svg">
<path d="M17.3333 14.8667H9.33325" stroke="currentColor" stroke-width="1.5" stroke-linecap="round" stroke-linejoin="round"/>
<path d="M15.0801 3.79993C17.8001 3.79993 20.0001 5.49326 20.0001 8.21326" stroke="currentColor" stroke-width="1.5" stroke-linecap="round" stroke-linejoin="round"/>
<path d="M2.66675 13.5334V8.70675C2.66675 5.98675 4.86675 3.78674 7.58675 3.78674H10.1601" stroke="currentColor" stroke-width="1.5" stroke-linecap="round" stroke-linejoin="round"/>
<path d="M2.66675 13.5334C2.66675 10.5867 5.05341 8.20007 8.00008 8.20007H21.3334C24.2667 8.20007 26.6667 10.6001 26.6667 13.5334V15.4667H25.2267C24.4801 15.4667 23.8001 15.7601 23.3067 16.2667C22.6401 16.9067 22.3201 17.8934 22.5868 18.9067C22.9201 20.1467 24.1468 20.9334 25.4268 20.9334H26.6667V22.8667C26.6667 25.8134 24.2801 28.2001 21.3334 28.2001H8.00008C5.05341 28.2001 2.66675 25.8134 2.66675 22.8667V19.3601" stroke="currentColor" stroke-width="1.5" stroke-linecap="round" stroke-linejoin="round"/>
<path d="M29.3335 16.8267V19.5734C29.3335 20.32 28.7201 20.9334 27.9601 20.9334H25.3868C23.9468 20.9334 22.6268 19.8801 22.5068 18.4401C22.4268 17.6001 22.7468 16.8134 23.3068 16.2667C23.8001 15.7601 24.4801 15.4667 25.2268 15.4667H27.9601C28.7201 15.4667 29.3335 16.08 29.3335 16.8267Z" stroke="currentColor" stroke-width="1.5" stroke-linecap="round" stroke-linejoin="round"/>
</svg>
