<svg width="32" height="32" viewBox="0 0 32 32" fill="none" xmlns="http://www.w3.org/2000/svg">
<path fill-rule="evenodd" clip-rule="evenodd" d="M7.29289 7.29292C7.68342 6.9024 8.31658 6.9024 8.70711 7.29292L24.7066 23.2925C25.0972 23.683 25.0972 24.3161 24.7066 24.7067C24.3161 25.0972 23.6829 25.0972 23.2924 24.7067L7.29289 8.70714C6.90237 8.31661 6.90237 7.68345 7.29289 7.29292Z" fill="currentColor"/>
<path fill-rule="evenodd" clip-rule="evenodd" d="M24.7069 7.29341C25.0974 7.68393 25.0974 8.3171 24.7069 8.70762L8.70733 24.7072C8.31681 25.0977 7.68364 25.0977 7.29312 24.7072C6.9026 24.3166 6.9026 23.6835 7.29312 23.2929L23.2926 7.29341C23.6832 6.90289 24.3163 6.90289 24.7069 7.29341Z" fill="currentColor"/>
</svg>
